 <svg  version="1.0" xmlns="http://www.w3.org/2000/svg"  width="300.000000pt" height="300.000000pt" viewBox="0 0 300.000000 300.000000"  preserveAspectRatio="xMidYMid meet">  <g transform="translate(0.000000,300.000000) scale(0.100000,-0.100000)" fill="#ffffff" stroke="none"> <path d="M269 2803 c-13 -17 -13 -17 6 -3 11 8 22 16 24 17 2 2 0 3 -6 3 -6 0 -17 -8 -24 -17z"/> <path d="M1388 2503 c-19 -5 -23 -15 -11 -26 3 -4 12 1 20 11 14 16 14 16 9 0 -3 -10 -3 -18 1 -18 3 0 12 8 19 18 11 14 13 14 14 2 0 -11 14 -16 55 -18 34 -2 55 1 55 8 0 13 69 -30 104 -65 26 -26 50 -32 61 -15 4 6 11 8 16 4 5 -3 7 -9 5 -13 -3 -4 5 -8 17 -9 12 -1 50 -13 84 -27 35 -14 65 -25 68 -25 3 0 -7 18 -21 40 -15 22 -29 38 -32 35 -3 -3 -14 3 -25 12 -13 11 -17 12 -12 4 6 -11 4 -13 -11 -8 -16 6 -17 5 -4 -6 8 -6 16 -19 18 -27 3 -11 -3 -9 -20 6 -19 18 -60 35 -91 38 -4 1 -12 8 -17 16 -9 13 -10 13 -10 0 0 -12 -2 -12 -9 -2 -4 7 -36 26 -70 42 -34 16 -59 26 -56 21 9 -16 -19 -18 -42 -4 -14 10 -23 11 -28 3 -3 -6 -11 -7 -17 -4 -14 9 -48 12 -70 7z m302 -99 c0 -2 -9 0 -20 6 -11 6 -20 13 -20 16 0 2 9 0 20 -6 11 -6 20 -13 20 -16z m164 -6 c4 4 7 3 6 -3 -5 -21 0 -36 10 -30 6 3 10 4 10 1 0 -20 -22 -11 -41 16 -13 18 -16 27 -8 21 9 -7 19 -9 23 -5z"/> <path d="M1238 2480 c7 -8 18 -15 25 -15 7 0 11 -8 9 -18 -2 -9 2 -17 8 -17 12 0 13 30 1 49 -6 9 -10 10 -16 2 -5 -9 -11 -9 -23 1 -15 10 -15 10 -4 -2z"/> <path d="M1298 2467 c4 -14 7 -16 13 -5 12 19 11 25 -5 25 -8 0 -11 -8 -8 -20z"/> <path d="M1326 2474 c-9 -23 -8 -26 11 -22 19 4 27 38 8 38 -7 0 -16 -7 -19 -16z"/> <path d="M1203 2465 c0 -8 3 -15 6 -16 3 0 16 -2 28 -5 12 -2 25 1 29 8 4 7 3 8 -4 4 -6 -4 -22 0 -35 9 -21 13 -24 13 -24 0z"/> <path d="M1160 2435 c-7 -8 -16 -12 -21 -9 -5 3 -14 -8 -20 -25 -6 -18 -16 -28 -22 -24 -5 3 -7 1 -3 -5 3 -5 0 -12 -6 -15 -7 -2 -9 -8 -5 -13 5 -5 13 -1 18 9 6 9 15 15 20 11 6 -4 4 -12 -5 -23 -14 -15 -13 -17 5 -18 11 -1 17 3 13 8 -3 6 2 17 12 25 11 9 14 13 9 10 -6 -2 -17 -1 -24 4 -11 6 -8 14 13 35 23 23 29 25 43 13 14 -11 16 -11 9 1 -7 10 -3 12 15 7 23 -7 23 -7 5 8 -25 20 -40 20 -56 1z"/> <path d="M1381 2431 c-8 -5 -21 -7 -30 -5 -9 2 -1 -3 18 -11 18 -9 36 -13 40 -9 3 4 0 9 -7 11 -6 3 -10 9 -6 14 7 11 3 11 -15 0z"/> <path d="M1484 2428 c-7 -10 4 -28 17 -28 6 0 8 4 4 9 -3 6 3 14 12 20 16 9 15 10 -5 8 -13 -1 -26 -5 -28 -9z"/> <path d="M1430 2430 c-7 -30 -7 -40 -2 -41 4 0 18 -3 32 -5 21 -4 22 -3 10 8 -8 7 -20 20 -27 28 -7 8 -13 13 -13 10z"/> <path d="M1523 2407 c0 -20 67 -29 74 -10 4 9 11 9 31 -4 26 -16 26 -16 11 1 -22 24 -116 34 -116 13z m44 -3 c-3 -3 -12 -4 -19 -1 -8 3 -5 6 6 6 11 1 17 -2 13 -5z"/> <path d="M1180 2396 c0 -2 9 -6 20 -9 11 -3 18 -1 14 4 -5 9 -34 13 -34 5z"/> <path d="M1287 2394 c-4 -4 -2 -13 4 -20 6 -8 6 -14 0 -18 -5 -4 -12 -2 -16 4 -3 5 -11 10 -18 10 -6 0 -2 -7 9 -16 19 -15 19 -16 -1 -8 -11 4 -28 7 -37 8 -9 0 -14 4 -12 8 9 14 -13 9 -25 -6 -9 -10 -9 -16 -1 -21 16 -10 -6 -34 -28 -30 -9 1 -11 0 -4 -2 7 -3 10 -9 7 -14 -4 -5 -2 -9 3 -9 6 0 12 7 16 15 3 8 16 15 28 16 13 0 17 3 11 6 -22 8 -14 23 11 23 13 0 26 -6 29 -14 6 -16 47 -29 47 -14 0 5 4 7 10 3 13 -8 83 22 76 33 -3 5 1 9 9 9 8 0 12 -3 9 -6 -3 -3 16 -11 43 -18 33 -8 49 -9 54 -2 4 7 14 5 27 -7 12 -10 29 -19 39 -20 32 -5 48 -10 68 -22 11 -6 15 -12 10 -12 -6 0 -17 6 -25 13 -8 6 -6 2 4 -10 11 -13 27 -23 37 -23 10 0 21 -4 24 -10 3 -5 14 -10 23 -9 14 0 13 2 -3 10 -18 8 -18 8 5 6 18 -1 24 -7 22 -19 -2 -11 2 -16 10 -13 14 6 57 -20 48 -28 -3 -2 -36 -7 -75 -11 -52 -5 -66 -4 -52 4 9 6 23 8 30 4 6 -4 9 -4 5 1 -4 4 -1 13 7 19 12 9 9 11 -17 13 -18 2 -47 10 -65 20 -30 16 -34 16 -68 0 -19 -9 -35 -12 -35 -7 0 13 -77 13 -85 0 -3 -5 -16 -10 -28 -10 -15 0 -18 -3 -9 -8 7 -5 27 -6 45 -4 28 4 29 6 12 13 -18 8 -17 8 5 6 14 -1 25 -7 25 -14 0 -20 14 -26 29 -14 8 7 21 9 27 5 7 -4 9 -3 5 4 -12 20 46 38 73 22 12 -7 6 -9 -22 -10 -21 0 -36 -4 -33 -9 3 -5 21 -5 41 -1 20 5 33 4 29 -1 -3 -5 -15 -9 -27 -9 -12 0 -29 -5 -37 -10 -11 -8 -1 -9 32 -5 40 4 46 3 41 -11 -5 -14 4 -15 70 -11 42 3 82 8 89 12 7 3 4 -1 -6 -9 -12 -9 -15 -16 -7 -16 7 0 29 -17 50 -39 29 -30 39 -35 48 -26 7 7 9 16 5 21 -4 4 -1 4 6 0 14 -9 16 3 2 24 -9 13 -11 13 -19 0 -5 -8 -7 -18 -4 -23 3 -5 0 -7 -8 -5 -8 3 -14 14 -14 25 0 27 -15 43 -15 17 -1 -13 -5 -9 -14 12 -8 18 -19 35 -25 38 -20 12 -12 28 10 21 15 -5 19 -4 15 4 -4 6 -2 11 4 11 6 0 10 -6 9 -12 -3 -17 17 -64 30 -72 25 -16 19 19 -13 66 -19 29 -32 57 -28 62 3 6 8 4 10 -4 6 -18 54 -84 65 -88 4 -2 4 -9 1 -14 -4 -7 -2 -8 4 -4 8 5 11 0 10 -11 -3 -38 3 -51 25 -58 12 -4 28 -6 35 -6 20 3 14 -16 -8 -22 -11 -3 -20 -1 -20 4 0 4 -9 13 -20 19 -24 13 -27 -2 -5 -23 7 -8 17 -27 21 -42 4 -14 13 -29 21 -32 12 -5 12 -7 2 -14 -10 -6 -10 -11 -1 -22 10 -12 9 -16 -3 -21 -15 -5 -21 -26 -7 -26 14 0 36 44 24 48 -8 2 -6 12 5 28 9 14 12 24 7 23 -22 -4 -23 3 -9 37 8 20 13 40 10 44 -3 5 0 12 5 15 8 5 6 13 -6 26 -9 10 -14 25 -10 34 3 9 2 13 -4 10 -9 -5 -15 23 -11 48 0 4 -2 6 -6 6 -22 -4 -35 2 -30 14 3 7 -5 13 -20 13 -19 2 -22 -1 -12 -12 6 -8 8 -14 4 -14 -5 0 0 -9 10 -20 10 -11 16 -22 13 -25 -6 -7 -78 74 -78 87 0 5 5 6 12 2 7 -4 8 -3 4 5 -4 6 -11 9 -16 6 -4 -3 -13 2 -20 10 -7 8 -16 12 -21 9 -5 -3 -19 0 -31 6 -21 10 -22 10 -5 -3 13 -11 15 -17 7 -22 -7 -4 -30 9 -53 31 -23 22 -33 29 -23 16 29 -34 14 -35 -25 -2 -19 16 -39 29 -46 30 -6 0 -13 5 -15 12 -2 6 -9 9 -16 7 -7 -2 20 -25 59 -52 39 -26 68 -43 64 -37 -12 20 12 10 35 -15 13 -14 20 -25 16 -25 -5 0 -3 -7 4 -15 19 -23 1 -18 -31 10 -16 13 -36 22 -44 18 -11 -4 -13 -1 -9 11 3 9 1 16 -5 16 -6 0 -10 -3 -10 -7 4 -25 -4 -21 -30 15 -16 22 -36 43 -43 48 -7 4 -4 -3 7 -15 l20 -23 -27 13 c-22 9 -31 9 -43 -1 -18 -15 -20 0 -2 19 8 10 8 12 0 7 -6 -3 -14 -2 -18 4 -4 6 -11 8 -16 5 -5 -4 -9 -2 -9 2 0 5 -13 10 -30 11 -23 2 -28 -1 -24 -13 8 -20 1 -19 -47 5 -45 23 -96 19 -63 -4 15 -11 15 -13 1 -19 -9 -3 -18 0 -21 9 -3 8 -10 14 -16 14 -6 0 -9 -4 -6 -9 6 -10 -19 -23 -27 -14 -3 3 -1 14 6 24 12 19 -2 47 -16 33z m223 -43 c0 -6 -4 -12 -8 -15 -5 -3 -9 1 -9 9 0 8 4 15 9 15 4 0 8 -4 8 -9z m315 -77 c-10 -7 -22 -11 -28 -7 -6 3 -3 11 8 19 10 7 22 11 28 7 6 -3 3 -11 -8 -19z m5 -29 c0 -17 -2 -18 -25 -9 -13 5 -14 8 -3 15 19 13 28 11 28 -6z m-308 -30 c0 -5 -5 -11 -10 -13 -5 -1 -9 4 -9 13 0 9 4 14 9 13 5 -2 10 -8 10 -13z m432 2 c11 -8 19 -32 23 -72 6 -55 5 -59 -10 -46 -10 7 -17 22 -17 33 0 10 -4 17 -9 14 -5 -4 -7 3 -4 14 3 11 9 17 14 14 15 -9 -4 30 -20 43 -21 16 0 17 23 0z m-264 -17 c-19 -13 -30 -13 -30 0 0 6 10 10 23 10 18 0 19 -2 7 -10z m315 -80 c3 -5 1 -10 -4 -10 -6 0 -11 5 -11 10 0 6 2 10 4 10 3 0 8 -4 11 -10z"/> <path d="M1749 2350 c13 -11 33 -20 45 -19 14 0 16 2 6 6 -8 3 -28 12 -45 20 l-30 14 24 -21z"/> <path d="M1908 2364 c-4 -5 0 -18 8 -29 8 -10 14 -15 14 -9 0 5 11 -4 25 -21 25 -30 26 -30 23 -5 -2 14 -9 24 -16 23 -6 -2 -12 4 -12 12 0 8 -6 15 -14 15 -8 0 -16 5 -18 12 -3 7 -7 8 -10 2z"/> <path d="M1050 2332 c21 -7 22 -9 8 -15 -11 -4 -15 -12 -12 -22 3 -8 1 -15 -5 -15 -6 0 -11 -5 -11 -11 0 -8 5 -7 15 1 13 11 18 11 28 0 10 -10 9 -11 -2 -5 -9 5 -12 4 -7 -3 4 -7 13 -12 19 -12 18 0 20 48 3 57 -8 4 -14 13 -13 18 1 6 -9 11 -23 12 l-25 2 25 -7z"/> <path d="M1397 2323 c-4 -3 10 -14 30 -24 40 -18 37 -21 -34 -22 -12 -1 -21 -3 -20 -6 2 -7 -8 -11 -25 -11 -10 0 -9 3 1 9 9 6 4 8 -17 8 -18 -1 -28 -6 -25 -14 3 -6 11 -9 18 -7 7 3 16 1 20 -5 4 -7 -3 -11 -17 -11 -18 0 -20 -2 -8 -10 8 -5 24 -7 36 -4 14 4 21 1 21 -9 0 -9 -7 -12 -19 -9 -10 2 -20 -2 -24 -12 -5 -14 -9 -14 -22 -4 -10 8 -13 9 -9 1 5 -7 0 -9 -13 -6 -11 3 -20 10 -20 15 0 5 5 6 10 3 6 -3 10 -1 10 4 0 6 -7 11 -15 11 -8 0 -15 -4 -15 -9 0 -5 -13 -14 -30 -21 -16 -7 -30 -18 -30 -25 0 -7 -12 -20 -26 -30 -14 -9 -23 -19 -20 -22 3 -3 -6 -21 -21 -39 -14 -19 -23 -34 -19 -34 3 0 -3 -9 -15 -21 -14 -14 -19 -27 -14 -42 3 -12 7 -28 7 -36 1 -10 5 -8 15 5 7 10 10 27 7 38 -5 16 -3 18 6 10 7 -7 13 -23 13 -37 1 -14 5 -23 9 -21 10 6 6 54 -4 54 -12 0 -9 42 7 75 7 17 14 24 14 17 1 -7 6 -10 13 -6 7 4 8 3 4 -5 -4 -6 -12 -8 -18 -5 -7 5 -9 -4 -6 -24 2 -17 1 -34 -4 -36 -5 -2 -3 -3 4 -2 6 1 24 24 40 52 15 27 32 56 38 66 8 13 6 16 -8 13 -9 -1 -16 -8 -14 -15 2 -8 -3 -10 -13 -7 -8 4 -15 2 -15 -4 0 -6 -5 -7 -11 -4 -6 4 6 21 28 41 40 35 77 46 67 19 -4 -8 -11 -12 -17 -8 -6 4 -7 1 -3 -6 6 -9 13 -8 27 5 11 9 21 15 24 12 10 -9 -5 -33 -26 -43 -12 -6 -28 -22 -37 -37 -13 -21 -13 -31 -4 -50 11 -21 12 -21 7 -2 -8 33 13 69 51 88 48 22 57 20 38 -9 -9 -14 -19 -23 -23 -21 -4 3 -8 -7 -8 -22 -1 -15 -4 -43 -8 -62 -5 -33 -5 -33 6 -10 7 14 11 28 11 33 -1 4 2 7 6 7 5 0 9 7 9 15 0 8 -5 15 -11 15 -5 0 3 13 19 30 22 23 31 27 42 18 7 -6 16 -8 20 -4 3 3 1 6 -5 6 -7 0 -12 5 -12 11 0 5 4 7 10 4 5 -3 7 0 4 9 -3 9 0 14 8 12 25 -3 36 -16 31 -36 -3 -11 -9 -17 -14 -14 -5 3 -9 2 -8 -3 3 -19 -2 -25 -15 -14 -16 14 -25 4 -61 -63 -20 -38 -22 -46 -9 -46 10 0 14 6 10 15 -3 9 0 15 8 15 23 0 37 25 23 40 -9 10 -9 11 0 6 8 -5 11 -2 7 7 -3 8 -1 18 5 22 6 3 11 2 11 -3 0 -6 11 -9 24 -8 13 0 24 3 24 6 -2 28 2 32 19 19 12 -10 17 -11 20 -2 2 7 12 9 21 6 14 -5 15 -3 5 7 -9 10 -15 10 -26 1 -12 -9 -16 -8 -21 5 -8 21 -8 26 3 20 5 -3 14 1 21 9 13 16 59 18 100 5 24 -8 24 -8 3 -9 -15 -1 -21 -6 -17 -15 4 -12 12 -11 45 3 21 9 39 23 39 31 0 9 -3 11 -8 4 -9 -13 -95 3 -87 17 4 5 -3 5 -18 0 -14 -5 -34 -7 -46 -4 -13 3 -29 -1 -40 -11 -20 -19 -36 -10 -19 11 6 8 7 13 2 12 -26 -5 -42 3 -40 18 2 9 8 19 15 21 8 3 6 9 -6 18 -16 12 -13 13 25 8 28 -5 42 -3 42 5 0 6 11 17 25 23 14 6 25 16 25 21 0 6 -3 8 -6 4 -3 -3 -24 1 -46 9 -46 16 -52 17 -61 7z m-22 -155 c-6 -28 -14 -35 -24 -19 -7 10 -13 11 -30 2 -17 -10 -20 -9 -15 4 4 8 15 15 26 15 10 0 17 4 14 8 -2 4 4 8 14 9 14 1 18 -4 15 -19z m35 8 c0 -3 -4 -8 -10 -11 -5 -3 -10 -1 -10 4 0 6 5 11 10 11 6 0 10 -2 10 -4z m-300 -207 c0 -6 -4 -7 -10 -4 -5 3 -10 11 -10 16 0 6 5 7 10 4 6 -3 10 -11 10 -16z"/> <path d="M1890 2300 c0 -5 5 -10 11 -10 5 0 7 5 4 10 -3 6 -8 10 -11 10 -2 0 -4 -4 -4 -10z"/> <path d="M1990 2300 c0 -28 17 -45 33 -32 7 7 18 8 23 4 4 -4 2 1 -6 12 -9 11 -16 14 -18 7 -3 -8 -9 -5 -18 6 -11 14 -13 15 -14 3z"/> <path d="M1348 2293 c12 -2 32 -2 45 0 12 2 2 4 -23 4 -25 0 -35 -2 -22 -4z"/> <path d="M1126 2281 c-4 -6 4 -13 20 -17 19 -5 22 -9 12 -15 -16 -11 0 -10 27 0 17 7 16 9 -10 15 -17 4 -33 12 -36 18 -4 7 -9 7 -13 -1z"/> <path d="M1208 2283 c6 -3 10 -8 7 -12 -2 -5 7 -6 22 -3 21 4 25 2 20 -12 -4 -9 -2 -16 3 -16 6 0 10 6 10 14 0 8 3 16 8 19 4 2 1 2 -5 1 -7 -2 -13 1 -13 6 0 5 -15 8 -32 8 -18 -1 -27 -3 -20 -5z"/> <path d="M1575 2270 c3 -5 8 -10 11 -10 2 0 4 5 4 10 0 6 -5 10 -11 10 -5 0 -7 -4 -4 -10z"/> <path d="M1473 2256 c-4 -5 6 -7 25 -3 17 4 34 2 37 -3 3 -5 12 -7 20 -4 8 4 12 10 9 15 -7 12 -83 8 -91 -5z"/> <path d="M1979 2252 c5 -10 18 -25 27 -33 11 -9 9 -2 -6 19 -26 35 -36 42 -21 14z"/> <path d="M1280 2251 c0 -5 5 -13 10 -16 6 -3 10 -2 10 4 0 5 -4 13 -10 16 -5 3 -10 2 -10 -4z"/> <path d="M2020 2253 c1 -5 7 -19 15 -33 8 -14 15 -36 16 -50 1 -21 2 -22 6 -5 3 11 10 23 17 27 8 6 7 8 -2 8 -9 0 -11 7 -6 22 6 20 5 21 -9 10 -13 -11 -15 -10 -10 7 4 15 1 21 -11 21 -9 0 -16 -3 -16 -7z"/> <path d="M1050 2240 c13 -8 13 -10 -2 -10 -9 0 -20 -4 -23 -10 -3 -6 1 -7 12 -4 17 5 17 5 0 -6 -9 -6 -22 -8 -29 -4 -8 5 -9 2 -5 -9 3 -9 2 -19 -3 -22 -6 -4 -10 -16 -10 -28 1 -25 24 -60 33 -50 12 11 8 23 -7 23 -24 0 -13 54 11 58 35 5 54 72 20 72 -7 0 -6 -4 3 -10z"/> <path d="M1184 2235 c-12 -8 -25 -11 -29 -7 -5 4 -5 2 -2 -4 4 -7 0 -15 -9 -18 -10 -4 -13 -2 -9 7 4 6 -1 3 -10 -8 -9 -11 -20 -20 -25 -20 -10 0 -25 -14 -25 -23 -1 -4 -6 -18 -13 -32 l-13 -25 20 24 c12 12 18 28 14 34 -3 6 -1 7 5 3 9 -5 9 -13 1 -28 -6 -11 -12 -34 -13 -49 -2 -31 -12 -46 -23 -36 -4 4 -1 13 5 19 15 15 15 28 1 28 -5 0 -8 -4 -4 -9 3 -5 1 -12 -5 -16 -5 -3 -10 -22 -10 -41 0 -22 -6 -37 -15 -40 -11 -5 -15 -19 -14 -53 1 -25 -1 -57 -5 -71 -3 -14 -1 -27 7 -32 8 -5 8 -8 1 -8 -6 0 -9 -10 -7 -24 3 -15 -3 -35 -16 -53 -22 -30 -30 -88 -18 -138 4 -16 9 -43 11 -60 7 -54 55 -143 70 -128 3 4 6 1 6 -5 0 -6 9 -9 19 -7 11 2 26 -4 33 -13 11 -13 11 -15 -2 -7 -12 7 -13 6 -4 -6 6 -8 10 -34 8 -59 -1 -25 -3 -59 -3 -76 -1 -23 -7 -34 -26 -42 -28 -13 -36 -19 -99 -78 -24 -22 -60 -49 -80 -58 -20 -9 -36 -20 -36 -24 0 -4 -17 -16 -37 -27 -21 -11 -40 -23 -43 -26 -10 -12 -49 -29 -68 -29 -11 0 -26 -7 -33 -17 -13 -15 -11 -16 11 -10 14 4 36 9 50 13 24 5 24 5 6 -10 -11 -9 -30 -16 -43 -16 -13 0 -50 -9 -83 -20 -45 -15 -65 -18 -85 -10 -33 12 -38 13 -30 0 3 -5 -6 -12 -21 -16 -16 -4 -22 -9 -14 -14 7 -5 2 -9 -14 -12 -23 -5 -25 -3 -14 11 11 14 11 14 -4 3 -9 -7 -22 -12 -30 -11 -7 1 -26 -3 -42 -10 -16 -6 -31 -9 -34 -7 -2 3 -18 -4 -34 -15 -16 -12 -36 -18 -44 -15 -8 3 -12 2 -9 -4 3 -6 -5 -10 -19 -10 -14 0 -26 -4 -26 -10 0 -5 -4 -10 -10 -10 -5 0 -26 -11 -46 -25 -20 -14 -33 -25 -28 -25 5 0 4 -4 -1 -8 -10 -6 -47 -79 -104 -203 -11 -25 -21 -61 -20 -80 0 -19 3 -27 6 -19 36 107 109 260 124 260 6 0 6 -8 -2 -22 -9 -19 -9 -21 2 -10 7 6 21 12 32 12 10 0 15 5 12 11 -4 6 -10 8 -13 5 -6 -7 -32 13 -32 25 0 14 90 70 153 95 67 27 81 29 72 13 -4 -5 10 -3 30 5 20 9 41 13 46 10 5 -3 9 0 9 6 0 8 10 10 27 6 18 -4 23 -3 15 2 -17 11 -8 15 108 49 72 20 169 43 118 27 -9 -3 -20 -15 -24 -26 -5 -16 -8 -18 -15 -7 -7 11 -9 10 -9 -3 0 -28 -1 -32 -11 -44 -6 -8 -2 -14 13 -18 34 -9 34 -9 48 33 7 22 32 59 56 82 24 23 41 46 38 51 -3 4 0 8 7 8 6 0 39 18 72 41 52 34 63 38 72 26 9 -13 16 -10 45 20 l35 35 -38 -22 c-21 -12 -40 -21 -42 -19 -9 10 128 119 149 119 22 0 24 5 30 93 4 64 2 109 -8 147 -8 30 -14 45 -15 32 -1 -27 -22 -37 -49 -23 -34 18 -76 169 -70 251 3 40 6 45 27 45 17 0 30 -10 43 -34 24 -43 18 -49 -17 -17 -16 15 -32 26 -36 26 -9 0 -1 -83 12 -115 5 -14 8 -4 8 33 1 56 6 62 27 35 10 -14 15 -15 25 -6 9 9 9 16 1 26 -7 9 -8 17 -2 23 5 5 11 31 13 57 2 26 7 50 10 54 4 3 7 19 7 35 0 15 4 28 9 28 5 0 11 7 15 15 4 12 2 13 -14 2 -11 -6 -20 -15 -20 -20 0 -4 -4 -5 -10 -2 -5 3 -10 1 -10 -4 0 -6 5 -11 10 -11 11 0 14 -33 3 -44 -6 -6 -13 -49 -14 -91 0 -18 -1 -18 -19 5 -10 13 -16 28 -14 32 2 3 -1 10 -7 14 -8 5 -9 3 -4 -6 5 -7 4 -11 -1 -8 -9 6 -9 77 0 136 3 17 1 32 -5 32 -5 0 -1 12 8 27 12 18 13 24 4 19 -9 -6 -12 -5 -9 5 3 8 11 13 18 11 7 -2 10 3 7 12 -3 8 -1 16 4 18 6 2 17 28 25 57 15 60 34 86 79 108 l30 15 -30 -27 -30 -27 37 26 c20 14 43 26 52 26 8 0 18 5 22 11 5 8 -1 10 -20 7 -14 -3 -26 -1 -26 3 0 5 9 9 21 9 11 0 17 5 14 10 -9 14 -27 12 -51 -5z m-759 -1393 c-3 -3 -11 0 -18 7 -9 10 -8 11 6 5 10 -3 15 -9 12 -12z m-25 -6 c0 -2 -7 -7 -16 -10 -8 -3 -12 -2 -9 4 6 10 25 14 25 6z"/> <path d="M1308 2213 c7 -3 16 -2 19 1 4 3 -2 6 -13 5 -11 0 -14 -3 -6 -6z"/> <path d="M2023 2163 c0 -18 5 -29 9 -25 5 5 4 19 -1 33 -10 23 -10 22 -8 -8z"/> <path d="M1020 2145 c-7 -8 -8 -15 -2 -15 5 0 15 7 22 15 7 8 8 15 2 15 -5 0 -15 -7 -22 -15z"/> <path d="M1476 2142 c-3 -6 1 -12 9 -16 8 -3 17 -1 20 5 9 13 27 0 22 -15 -3 -7 1 -13 9 -13 12 0 12 3 0 21 -14 23 -50 33 -60 18z"/> <path d="M1122 2120 c-13 -11 -22 -25 -20 -32 2 -6 14 3 27 20 26 37 25 39 -7 12z"/> <path d="M2062 2126 c7 -8 15 -12 17 -11 5 6 -10 25 -20 25 -5 0 -4 -6 3 -14z"/> <path d="M2033 2096 c3 -7 0 -19 -6 -25 -9 -9 -8 -11 5 -6 22 9 31 45 11 45 -9 0 -13 -6 -10 -14z"/> <path d="M1626 2083 c-6 -14 -5 -15 5 -6 7 7 10 15 7 18 -3 3 -9 -2 -12 -12z"/> <path d="M1474 2076 c-3 -7 -4 -17 -3 -22 1 -5 1 -17 0 -28 -1 -16 -3 -17 -18 -5 -15 11 -16 11 -5 -1 6 -8 12 -21 12 -29 0 -14 -1 -14 -10 -1 -7 12 -12 12 -22 2 -13 -13 -32 -17 -24 -4 2 4 -4 13 -15 20 -23 15 -24 9 -3 -23 12 -19 20 -22 34 -15 16 8 63 5 81 -6 17 -10 99 38 99 59 0 5 -8 0 -17 -11 -23 -26 -113 -41 -113 -18 0 8 9 18 20 21 11 3 20 11 20 16 0 16 43 27 68 18 15 -6 21 -5 17 1 -3 6 -13 10 -21 10 -8 0 -14 5 -14 10 0 6 -5 10 -11 10 -5 0 -8 -3 -6 -7 3 -5 -10 -16 -28 -25 l-33 -16 2 29 c2 31 -1 37 -10 15z"/> <path d="M1510 2080 c-8 -5 -12 -12 -9 -15 4 -3 12 1 19 10 14 17 11 19 -10 5z"/> <path d="M1010 2064 c0 -8 5 -12 10 -9 6 3 10 10 10 16 0 5 -4 9 -10 9 -5 0 -10 -7 -10 -16z"/> <path d="M1894 2058 c-4 -6 -3 -8 3 -5 6 4 13 0 17 -8 3 -8 1 -17 -4 -20 -6 -4 -10 -11 -10 -18 0 -6 7 -2 15 9 14 18 14 18 15 -7 0 -15 7 -32 15 -39 23 -19 19 14 -7 61 -23 41 -32 47 -44 27z"/> <path d="M1375 2051 c-3 -5 -1 -12 5 -16 5 -3 10 1 10 9 0 18 -6 21 -15 7z"/> <path d="M1406 2045 c-3 -8 -1 -15 4 -15 6 0 10 7 10 15 0 8 -2 15 -4 15 -2 0 -6 -7 -10 -15z"/> <path d="M1430 2048 c0 -4 4 -8 9 -8 6 0 12 4 15 8 3 5 -1 9 -9 9 -8 0 -15 -4 -15 -9z"/> <path d="M2030 2045 c-7 -9 -8 -15 -2 -15 5 0 12 7 16 15 3 8 4 15 2 15 -2 0 -9 -7 -16 -15z"/> <path d="M1537 2020 c-3 -11 -3 -20 -1 -20 2 0 8 9 14 20 6 11 7 20 2 20 -6 0 -12 -9 -15 -20z"/> <path d="M1710 2036 c0 -2 7 -7 16 -10 8 -3 12 -2 9 4 -6 10 -25 14 -25 6z"/> <path d="M2027 2013 c-14 -13 -7 -43 11 -43 13 0 14 2 3 9 -8 5 -9 10 -2 12 6 2 7 10 2 17 -4 7 -10 9 -14 5z"/> <path d="M1900 1970 c0 -6 7 -10 15 -10 8 0 15 2 15 4 0 2 -7 6 -15 10 -8 3 -15 1 -15 -4z"/> <path d="M1285 1959 c-3 -5 0 -6 8 -3 8 3 18 -6 25 -21 10 -22 16 -25 44 -20 34 6 51 15 28 15 -7 0 -23 8 -34 18 -17 14 -18 14 -8 1 10 -14 10 -18 -3 -22 -8 -4 -14 -3 -14 1 4 24 -4 38 -21 39 -11 1 -22 -2 -25 -8z"/> <path d="M1420 1945 c-11 -13 -10 -14 4 -9 9 3 16 10 16 15 0 13 -6 11 -20 -6z"/> <path d="M2030 1956 c0 -2 7 -6 15 -10 8 -3 15 -1 15 4 0 6 -7 10 -15 10 -8 0 -15 -2 -15 -4z"/> <path d="M1070 1919 c0 -11 -4 -18 -9 -15 -5 3 -8 -6 -7 -22 1 -29 22 -59 34 -48 3 4 1 11 -6 15 -9 5 -11 20 -6 49 4 23 4 42 0 42 -3 0 -6 -9 -6 -21z"/> <path d="M1458 1933 c7 -3 16 -2 19 1 4 3 -2 6 -13 5 -11 0 -14 -3 -6 -6z"/> <path d="M2020 1925 c0 -8 6 -15 14 -15 7 0 19 -7 27 -16 11 -13 9 -14 -14 -9 -34 9 -35 -6 -2 -22 14 -6 23 -7 20 -3 -3 5 -1 11 5 15 6 4 1 18 -12 36 -24 32 -38 37 -38 14z"/> <path d="M1100 1910 c0 -5 5 -10 10 -10 6 0 10 5 10 10 0 6 -4 10 -10 10 -5 0 -10 -4 -10 -10z"/> <path d="M1950 1891 c0 -7 -7 -11 -14 -8 -10 4 -13 1 -9 -9 3 -7 9 -14 13 -14 10 0 22 31 15 38 -3 3 -5 0 -5 -7z"/> <path d="M1550 1871 c0 -6 4 -13 10 -16 6 -3 7 1 4 9 -7 18 -14 21 -14 7z"/> <path d="M1587 1866 c-4 -10 -1 -13 8 -9 8 3 12 9 9 14 -7 12 -11 11 -17 -5z"/> <path d="M1327 1864 c-3 -3 -25 -8 -49 -10 -24 -2 -51 -5 -62 -7 -22 -4 -40 -33 -30 -48 9 -16 27 17 18 34 -5 8 -4 9 4 2 6 -6 54 -9 111 -7 92 3 99 5 89 21 -10 17 -68 28 -81 15z"/> <path d="M1460 1854 c0 -8 5 -12 10 -9 6 3 10 10 10 16 0 5 -4 9 -10 9 -5 0 -10 -7 -10 -16z"/> <path d="M1617 1849 c-10 -13 -20 -18 -29 -13 -7 4 -10 3 -5 -1 4 -5 -5 -17 -20 -28 -18 -12 -21 -16 -8 -12 11 4 25 8 32 8 7 0 10 4 7 9 -6 9 -2 10 41 10 102 1 126 -3 145 -22 11 -11 20 -17 20 -14 0 4 7 1 15 -6 19 -16 40 -3 24 16 -6 8 -17 14 -25 14 -7 0 -19 6 -26 13 -7 6 -24 14 -38 16 -14 1 -28 8 -32 14 -3 6 -24 12 -46 14 -32 3 -43 0 -55 -18z m93 -4 c0 -1 -9 -5 -20 -8 -12 -3 -20 0 -20 8 0 8 8 11 20 8 11 -3 20 -7 20 -8z"/> <path d="M1906 1855 c-2 -7 1 -18 8 -25 19 -15 28 11 11 27 -10 9 -14 9 -19 -2z"/> <path d="M1964 1838 c0 -10 1 -18 3 -18 1 0 7 8 12 18 7 13 6 19 -2 19 -7 0 -13 -9 -13 -19z"/> <path d="M2023 1815 c-2 -57 -19 -112 -38 -119 -8 -3 -15 -11 -15 -17 0 -7 8 -5 20 6 16 15 22 15 35 5 27 -22 15 -134 -27 -243 -17 -45 -79 -66 -100 -34 -3 6 -10 -7 -14 -29 -3 -21 -15 -61 -25 -89 -9 -27 -20 -82 -24 -121 -6 -68 -6 -71 19 -87 14 -10 61 -52 103 -95 43 -43 107 -101 143 -131 36 -29 70 -58 75 -65 6 -6 73 -43 150 -83 77 -39 139 -76 138 -81 -2 -6 3 -9 10 -6 18 7 97 -57 97 -79 0 -10 -5 -15 -10 -12 -6 4 -8 10 -5 15 3 4 -12 20 -33 36 l-37 28 37 -44 c20 -25 43 -44 51 -42 8 1 26 -11 40 -28 14 -16 31 -30 37 -30 6 0 9 -4 6 -9 -3 -4 6 -23 20 -42 13 -18 36 -69 49 -112 28 -88 30 -101 13 -91 -7 4 -8 3 -4 -5 4 -6 11 -9 16 -6 5 3 11 -7 14 -22 6 -28 25 -161 26 -175 0 -5 5 -8 11 -8 7 0 8 11 3 32 -12 57 -16 82 -17 116 -1 17 -4 32 -8 32 -3 0 -6 6 -7 13 -2 36 -33 149 -45 165 -6 8 -6 12 2 12 8 0 7 6 -4 16 -8 9 -22 32 -31 52 -8 20 -22 44 -32 53 -9 9 -27 27 -38 40 -62 69 -259 215 -239 177 4 -7 -3 -2 -15 12 -12 14 -18 18 -14 10 6 -12 4 -12 -12 1 -10 9 -30 20 -44 24 -45 13 -94 42 -131 76 -59 54 -100 88 -104 86 -6 -3 -102 102 -98 108 1 3 0 3 -3 0 -4 -2 -28 17 -55 44 l-48 48 2 67 c1 36 5 66 9 66 4 0 5 7 2 15 -4 8 -1 15 4 15 6 0 14 18 19 41 7 35 13 43 45 54 20 6 44 20 53 29 9 9 21 13 27 10 7 -4 8 -2 4 5 -4 6 -4 17 1 24 5 7 10 25 12 41 1 16 8 45 15 65 15 44 10 131 -8 150 -9 9 -11 22 -7 40 11 38 8 114 -4 118 -7 2 -11 -15 -12 -42z"/> <path d="M1437 1813 c-10 -9 -9 -23 1 -23 5 0 9 7 9 15 0 17 -1 18 -10 8z"/> <path d="M1255 1774 c-21 -14 -44 -23 -52 -20 -8 4 -11 1 -8 -5 4 -6 -2 -13 -14 -16 -12 -3 -21 -9 -21 -14 0 -5 17 -2 38 7 23 10 63 16 105 16 46 -1 67 3 67 11 0 8 3 9 8 1 10 -15 42 -25 42 -13 0 16 -71 41 -99 35 -14 -3 -37 -8 -51 -11 l-25 -6 25 15 c35 22 99 20 138 -4 36 -22 46 -25 37 -10 -11 17 -76 40 -115 40 -23 0 -51 -9 -75 -26z"/> <path d="M1950 1770 c6 -11 12 -20 14 -20 2 0 2 9 -1 20 -3 11 -9 20 -15 20 -5 0 -4 -9 2 -20z"/> <path d="M1564 1743 c-14 -18 -23 -33 -20 -33 3 0 21 15 41 33 24 22 31 34 21 34 -9 0 -28 -15 -42 -34z"/> <path d="M1623 1756 c-30 -32 -29 -42 2 -22 14 9 25 12 25 8 0 -5 29 -12 63 -14 35 -3 76 -13 90 -23 25 -16 47 -14 47 5 0 5 -7 7 -15 4 -8 -3 -28 8 -47 25 -18 17 -37 31 -43 31 -5 -1 -1 -7 9 -15 23 -18 4 -20 -27 -3 -12 6 -37 11 -57 10 -26 -1 -31 1 -20 8 8 5 11 10 5 10 -5 0 -20 -11 -32 -24z"/> <path d="M1456 1713 c-4 -9 -2 -21 4 -27 7 -7 10 -2 10 17 0 31 -5 34 -14 10z"/> <path d="M1365 1708 c-22 -5 -58 -7 -80 -5 -22 3 -49 1 -60 -4 -13 -6 14 -8 77 -6 53 1 100 5 104 10 13 12 0 14 -41 5z"/> <path d="M1605 1701 c-10 -17 53 -32 122 -29 58 2 67 5 54 15 -19 14 -45 17 -37 4 7 -10 -64 -4 -106 9 -15 5 -30 5 -33 1z"/> <path d="M1939 1698 c0 -2 -1 -17 -2 -35 -2 -24 1 -29 10 -21 9 7 10 16 3 28 -5 9 -6 20 -3 24 3 3 3 6 0 6 -4 0 -7 -1 -8 -2z"/> <path d="M666 1662 c-3 -5 1 -9 9 -9 8 0 12 4 9 9 -3 4 -7 8 -9 8 -2 0 -6 -4 -9 -8z"/> <path d="M1994 1650 c-12 -5 -24 -15 -27 -24 -8 -21 3 -20 19 2 12 15 13 10 14 -38 0 -43 3 -51 11 -37 5 9 9 37 7 61 -3 40 -5 43 -24 36z"/> <path d="M1060 1613 c-6 -15 -12 -33 -15 -40 -2 -6 7 -26 21 -44 24 -33 24 -34 4 -41 -32 -12 -23 -18 10 -7 35 13 38 24 10 39 -22 12 -29 77 -9 97 8 8 8 13 0 17 -6 4 -15 -5 -21 -21z"/> <path d="M1208 1633 c6 -2 9 -10 6 -15 -4 -7 -2 -8 5 -4 13 9 5 26 -12 25 -9 0 -8 -2 1 -6z"/> <path d="M1113 1595 c0 -22 2 -30 4 -17 2 12 2 30 0 40 -3 9 -5 -1 -4 -23z"/> <path d="M1425 1610 c-3 -5 -1 -10 4 -10 6 0 11 5 11 10 0 6 -2 10 -4 10 -3 0 -8 -4 -11 -10z"/> <path d="M1392 1588 c-32 -32 -1 -77 49 -70 39 6 27 22 -17 22 -36 0 -41 9 -24 41 12 22 9 24 -8 7z"/> <path d="M1610 1574 c13 -34 5 -45 -28 -38 -18 4 -32 1 -40 -9 -10 -12 -6 -14 24 -12 49 4 68 24 55 58 -6 15 -13 27 -16 27 -2 0 0 -12 5 -26z"/> <path d="M1940 1581 c0 -6 5 -13 11 -17 7 -4 9 -21 6 -41 -4 -24 -2 -33 6 -30 16 5 21 51 7 77 -11 20 -30 27 -30 11z"/> <path d="M1640 1545 c0 -11 52 -55 61 -50 14 9 11 25 -5 25 -7 0 -19 7 -26 15 -12 14 -30 20 -30 10z"/> <path d="M1310 1530 c-13 -8 -12 -10 3 -10 9 0 17 5 17 10 0 12 -1 12 -20 0z"/> <path d="M1498 1533 c-10 -2 -15 -10 -11 -19 3 -8 0 -14 -7 -14 -10 0 -10 -3 0 -15 10 -12 9 -15 -4 -15 -10 0 -15 -4 -12 -9 3 -5 24 -9 47 -9 l41 -1 -21 23 c-12 13 -19 31 -16 44 2 12 3 21 2 21 -1 -1 -10 -3 -19 -6z"/> <path d="M1856 1507 c3 -10 9 -15 12 -12 3 3 0 11 -7 18 -10 9 -11 8 -5 -6z"/> <path d="M1295 1500 c4 -6 11 -8 16 -5 14 9 11 15 -7 15 -8 0 -12 -5 -9 -10z"/> <path d="M743 1471 c0 -11 5 -18 9 -15 4 3 5 11 1 19 -7 21 -12 19 -10 -4z"/> <path d="M1670 1473 c1 -17 28 -43 44 -43 13 0 11 5 -10 25 -29 27 -34 29 -34 18z"/> <path d="M1907 1466 c-4 -10 0 -14 14 -13 10 1 19 7 19 14 0 18 -27 16 -33 -1z"/> <path d="M1215 1450 c-3 -5 -1 -10 4 -10 6 0 11 5 11 10 0 6 -2 10 -4 10 -3 0 -8 -4 -11 -10z"/> <path d="M1270 1446 c0 -2 7 -7 16 -10 8 -3 12 -2 9 4 -6 10 -25 14 -25 6z"/> <path d="M1497 1419 c-10 -6 -31 -7 -48 -4 -20 5 -38 1 -55 -10 -14 -9 -33 -13 -44 -10 -38 12 -19 -13 25 -34 48 -22 75 -27 75 -12 0 5 -9 7 -20 4 -15 -4 -20 0 -20 15 0 16 7 20 39 20 29 1 41 -4 44 -16 4 -15 5 -15 6 1 1 14 8 17 36 14 19 -2 38 -6 41 -10 3 -3 12 -3 19 -1 7 3 15 -2 17 -10 2 -13 7 -14 27 -3 14 6 26 18 29 26 3 10 0 11 -13 4 -12 -7 -28 -5 -53 7 -26 13 -44 15 -65 9 -23 -7 -28 -5 -23 6 6 17 6 17 -17 4z m-97 -45 c0 -8 -5 -12 -10 -9 -6 4 -8 11 -5 16 9 14 15 11 15 -7z"/> <path d="M223 1405 c0 -8 4 -12 9 -9 5 3 6 10 3 15 -9 13 -12 11 -12 -6z"/> <path d="M1195 1400 c3 -5 8 -10 11 -10 2 0 4 5 4 10 0 6 -5 10 -11 10 -5 0 -7 -4 -4 -10z"/> <path d="M1555 1349 c-16 -5 -45 -7 -62 -4 -19 3 -33 1 -33 -5 0 -11 81 -13 118 -4 12 4 22 10 22 15 0 11 -5 10 -45 -2z"/> <path d="M1161 1342 c0 -7 6 -26 14 -42 9 -17 12 -30 8 -30 -5 0 -1 -6 7 -13 8 -7 15 -18 15 -26 0 -8 8 -15 18 -17 9 -1 17 2 17 7 0 5 -4 9 -10 9 -5 0 -10 7 -10 15 0 8 -3 15 -7 15 -13 0 -32 50 -26 68 4 14 3 14 -5 3 -8 -11 -11 -10 -15 5 -2 10 -5 13 -6 6z"/> <path d="M1440 1285 c0 -6 12 -12 28 -13 15 -1 39 -7 55 -13 22 -9 25 -14 16 -25 -7 -9 -8 -14 -1 -14 21 0 20 29 -1 44 -15 11 -17 14 -4 10 13 -5 16 -2 11 10 -7 19 -44 22 -44 4 0 -9 -3 -9 -8 -2 -9 13 -52 13 -52 -1z"/> <path d="M1250 1260 c0 -5 5 -10 11 -10 5 0 7 5 4 10 -3 6 -8 10 -11 10 -2 0 -4 -4 -4 -10z"/> <path d="M1787 1209 c-10 -11 -22 -17 -27 -14 -6 3 -10 0 -10 -7 0 -7 -12 -22 -27 -33 -14 -11 -32 -26 -39 -32 -7 -7 -17 -13 -23 -13 -6 0 -11 -5 -11 -11 0 -5 -5 -7 -12 -3 -7 4 -8 3 -4 -5 5 -8 15 -6 36 9 15 11 32 20 37 20 12 0 108 98 102 104 -3 3 -13 -4 -22 -15z"/> <path d="M1270 1200 c0 -5 5 -10 11 -10 5 0 7 5 4 10 -3 6 -8 10 -11 10 -2 0 -4 -4 -4 -10z"/> <path d="M1087 1156 c-39 -42 -47 -55 -47 -71 0 -9 -4 -14 -8 -11 -5 3 -16 -8 -26 -25 -9 -16 -12 -29 -7 -29 6 0 11 7 11 17 0 9 3 14 6 10 9 -9 -6 -48 -17 -42 -5 3 -6 -2 -2 -11 4 -11 3 -15 -5 -10 -6 3 -14 2 -17 -4 -4 -6 -3 -9 2 -8 12 4 14 -9 7 -38 -4 -15 -12 -23 -19 -20 -7 2 -21 -5 -32 -16 -18 -21 -18 -21 5 -9 13 7 26 10 29 8 11 -12 -41 -146 -61 -157 -12 -6 -30 -16 -41 -23 -68 -43 -213 -111 -231 -109 -30 3 -39 -43 -11 -55 18 -8 18 -9 1 -23 -16 -14 -17 -13 -11 3 3 9 2 17 -3 17 -14 0 -12 -27 1 -36 7 -4 16 1 21 10 13 23 35 20 41 -5 4 -16 11 -20 26 -16 12 3 21 1 21 -4 0 -5 4 -9 10 -9 5 0 7 8 3 18 -6 16 -5 16 13 0 16 -14 21 -14 32 -2 11 12 9 13 -10 11 -18 -1 -22 2 -20 18 4 19 3 19 -18 -2 -22 -24 -52 -31 -48 -11 2 6 -8 17 -22 25 -14 7 -20 13 -13 13 7 0 19 12 28 28 l15 27 -4 -32 c-2 -18 1 -36 6 -39 7 -4 8 -2 4 4 -4 7 -1 12 6 12 9 0 9 3 -2 10 -11 7 -11 10 -2 10 7 0 12 8 10 18 -3 15 6 17 70 15 39 0 72 2 72 6 0 4 -10 7 -22 8 -65 1 -73 3 -58 13 8 6 26 8 40 5 14 -3 32 -1 40 5 10 6 11 10 3 10 -22 0 -14 14 14 28 36 16 42 15 39 -5 -2 -9 -11 -19 -21 -23 -17 -6 -17 -7 -2 -13 24 -9 21 -26 -3 -20 -11 3 -20 0 -20 -6 0 -6 9 -11 21 -11 16 0 19 -4 14 -22 -4 -13 -8 -27 -9 -33 -2 -17 -20 -25 -41 -19 -15 4 -16 3 -6 -4 7 -5 9 -11 3 -13 -5 -2 -6 -12 -1 -24 7 -19 8 -19 8 1 1 21 31 44 31 24 0 -6 -4 -10 -10 -10 -5 0 -10 -7 -10 -15 0 -8 5 -15 10 -15 6 0 10 -7 10 -16 0 -15 -9 -16 -71 -10 -39 3 -76 9 -81 12 -5 3 -32 8 -60 10 -27 1 -55 7 -62 13 -6 5 -16 7 -22 3 -13 -9 -26 -54 -13 -46 5 3 9 -5 9 -18 0 -19 -2 -20 -11 -8 -8 11 -9 5 -4 -23 5 -29 3 -37 -6 -31 -9 5 -11 -4 -6 -40 4 -30 3 -45 -3 -41 -6 3 -10 1 -10 -4 0 -6 4 -11 9 -11 5 0 8 -8 6 -18 -1 -9 -7 -16 -11 -15 -5 1 -10 -13 -11 -30 -1 -26 0 -28 7 -12 8 19 9 19 9 -2 1 -14 -5 -23 -14 -23 -12 0 -13 -4 -3 -25 6 -14 15 -25 20 -25 5 0 6 4 3 10 -4 6 10 9 37 9 l43 -2 -35 -7 -35 -7 37 -2 c20 0 39 4 42 12 5 9 7 9 12 0 3 -7 12 -9 20 -6 8 3 14 0 14 -6 0 -6 7 -11 16 -11 9 0 12 5 8 13 -5 9 -4 9 6 0 8 -7 25 -9 43 -6 19 4 28 2 24 -4 -3 -5 0 -10 8 -10 8 0 12 5 8 10 -3 5 5 2 18 -6 l24 -16 -1 44 c-2 63 16 146 30 138 6 -3 5 0 -1 8 -15 15 -17 33 -4 25 5 -4 7 3 4 14 -3 11 -2 40 1 65 6 38 10 44 24 36 9 -4 23 -6 30 -4 6 3 12 -3 12 -12 0 -12 5 -15 18 -10 33 13 48 13 65 0 14 -10 16 -18 7 -39 -12 -33 -12 -36 -1 -36 5 0 12 16 15 35 4 19 12 35 17 35 6 0 7 -9 3 -23 -6 -22 -6 -22 13 -2 24 24 19 45 -8 38 -14 -4 -19 0 -19 13 0 13 -3 15 -8 7 -6 -10 -20 -9 -62 5 -41 13 -54 14 -57 5 -6 -18 -33 10 -33 33 0 38 24 143 32 138 4 -3 8 0 8 5 0 6 -4 11 -9 11 -4 0 -6 11 -3 25 3 18 10 25 21 22 9 -2 15 -8 14 -14 -3 -12 54 -36 67 -28 4 2 16 -5 26 -16 18 -20 18 -20 -11 -14 -17 4 -42 13 -57 20 -35 17 -44 4 -16 -21 12 -11 18 -13 13 -5 -6 11 -3 13 16 8 13 -4 27 -7 32 -7 4 0 7 -16 7 -36 0 -29 -3 -34 -13 -25 -8 6 -16 10 -18 8 -2 -1 1 3 8 9 9 8 4 13 -21 22 -44 16 -46 15 -46 -10 0 -18 2 -20 10 -8 8 13 11 13 22 1 11 -12 10 -13 -2 -6 -8 4 -6 -1 5 -12 11 -11 22 -16 23 -11 9 21 19 -5 15 -38 -2 -20 0 -33 6 -30 9 6 21 65 21 106 0 18 3 21 11 13 8 -8 8 -28 2 -67 -6 -31 -6 -59 -2 -62 4 -2 11 23 15 56 3 33 10 57 15 54 15 -9 10 5 -17 47 -20 32 -23 43 -13 55 15 18 29 18 29 1 0 -8 9 -22 20 -32 12 -10 18 -25 15 -32 -3 -9 0 -11 7 -7 8 5 9 1 4 -12 -6 -15 -2 -14 19 6 24 23 24 25 7 31 -10 4 -33 21 -50 39 l-32 31 21 42 c19 37 21 50 14 122 -11 105 -9 203 3 218 12 15 20 117 9 117 -4 0 -18 -11 -30 -24z m5 -46 c-2 -16 -7 -30 -11 -30 -8 0 -7 -208 2 -216 3 -3 2 -17 -3 -30 -6 -15 -6 -24 0 -24 18 0 10 -37 -20 -99 l-31 -62 -29 23 c-16 13 -29 30 -29 38 -1 9 -10 16 -21 17 -28 2 -12 -25 35 -61 20 -16 34 -30 31 -33 -10 -10 -96 70 -96 89 0 26 23 32 59 14 19 -10 32 -12 36 -6 3 6 0 12 -7 14 -41 13 -49 17 -55 31 -3 9 3 28 14 43 10 15 20 41 21 57 1 17 13 64 26 105 20 60 28 74 43 72 13 -2 14 0 5 6 -13 9 -7 42 8 42 4 0 10 9 13 20 8 31 14 24 9 -10z m-432 -529 c0 -12 -28 -22 -34 -12 -3 5 -3 11 1 15 9 9 33 7 33 -3z m48 -136 c31 -3 69 -6 85 -8 15 -2 36 -4 47 -5 17 -2 19 -8 15 -49 -3 -27 -10 -79 -16 -118 -7 -38 -13 -81 -15 -95 -1 -14 -2 -28 -3 -33 -1 -4 -12 -5 -26 -1 -15 4 -32 1 -42 -7 -12 -10 -15 -10 -9 -2 5 9 1 13 -11 14 -10 0 -29 3 -43 5 -14 3 -45 6 -70 8 -25 2 -48 4 -52 5 -8 1 -4 63 5 78 3 5 5 22 5 39 -1 31 21 174 29 187 2 4 13 2 24 -4 11 -5 46 -12 77 -14z m252 -30 c0 -8 -2 -15 -4 -15 -2 0 -6 7 -10 15 -3 8 -1 15 4 15 6 0 10 -7 10 -15z"/> <path d="M1050 1040 c-1 -3 -3 -16 -6 -30 -3 -21 -2 -22 7 -7 6 10 8 23 5 30 -2 7 -5 10 -6 7z"/> <path d="M1050 776 c0 -8 -6 -17 -12 -19 -10 -4 -10 -6 -1 -6 7 -1 17 8 23 19 7 14 7 20 0 20 -5 0 -10 -6 -10 -14z"/> <path d="M1274 1143 c14 -15 22 -31 19 -36 -3 -6 -1 -7 5 -3 6 3 15 -2 21 -11 6 -10 11 -13 11 -7 0 6 -11 23 -25 38 -14 15 -23 32 -20 37 4 5 -3 9 -15 9 -20 0 -20 -1 4 -27z"/> <path d="M1300 1159 c0 -16 63 -70 85 -73 8 -1 18 -5 21 -9 12 -11 42 -8 47 6 3 8 -9 12 -38 13 -32 1 -52 8 -77 29 -18 15 -31 30 -30 32 2 3 1 7 -2 11 -3 3 -6 -1 -6 -9z"/> <path d="M1510 1129 c0 -5 5 -7 10 -4 6 3 10 8 10 11 0 2 -4 4 -10 4 -5 0 -10 -5 -10 -11z"/> <path d="M1477 1086 c-11 -8 -14 -17 -8 -20 5 -4 15 3 21 14 13 23 11 24 -13 6z"/> <path d="M1585 1093 c-11 -3 -24 -9 -29 -14 -6 -5 -15 -4 -22 2 -7 6 -18 8 -24 4 -18 -11 -2 -23 27 -19 54 7 63 10 75 22 12 12 8 13 -27 5z"/> <path d="M1824 1023 c-4 -37 -3 -62 5 -72 26 -36 71 -140 66 -153 -3 -8 -7 -47 -8 -86 -2 -61 1 -73 16 -78 9 -3 17 -9 17 -14 0 -18 145 -78 157 -66 4 4 -106 57 -124 60 -7 1 -16 6 -20 11 -5 4 -1 4 7 0 13 -8 13 -6 1 8 -7 9 -16 15 -20 13 -3 -2 -6 9 -7 25 -1 23 3 29 15 26 9 -2 15 -9 13 -16 -1 -6 5 -20 14 -29 17 -17 28 -23 127 -74 56 -29 77 -51 62 -66 -3 -4 -11 1 -16 10 -6 11 -16 15 -26 11 -12 -5 -14 -3 -8 6 4 7 -17 -11 -46 -40 -30 -30 -69 -65 -87 -79 -41 -31 -86 -104 -78 -127 9 -22 19 -9 22 28 3 37 13 51 15 21 2 -35 4 -40 13 -49 5 -4 6 7 2 28 -3 20 -3 45 1 55 6 16 8 14 14 -11 7 -29 7 -29 8 7 2 63 18 51 25 -20 l7 -67 44 -2 c25 -1 43 2 40 7 -3 5 -12 7 -19 4 -7 -3 -24 5 -37 16 -13 12 -18 19 -11 15 7 -3 12 0 12 9 0 8 -6 17 -12 19 -9 4 -9 6 -1 6 14 1 5 41 -11 41 -6 0 -3 5 6 11 12 7 24 6 37 -1 11 -5 22 -6 25 -1 8 12 -4 21 -31 21 -15 0 -22 4 -17 11 3 6 15 9 25 6 14 -4 19 0 19 14 0 11 7 19 16 19 10 0 13 -6 9 -19 -8 -25 5 -28 105 -27 84 2 167 -16 124 -27 -17 -4 -17 -5 3 -6 12 0 25 -6 29 -12 5 -8 9 -7 14 1 10 16 -27 48 -90 80 -25 12 -63 39 -86 60 -22 20 -45 39 -51 41 -5 2 -29 37 -52 78 -34 58 -40 75 -30 82 10 6 10 9 2 9 -14 0 -55 78 -48 91 3 4 2 9 -2 11 -5 1 -21 32 -38 68 -28 63 -107 170 -125 170 -5 0 -12 -26 -16 -57z m49 -26 c-3 -15 -2 -18 5 -9 7 10 15 6 37 -19 25 -31 26 -34 9 -40 -17 -7 -17 -8 2 -8 21 -1 54 -51 34 -51 -6 0 -10 8 -10 17 0 9 -2 14 -5 11 -8 -8 7 -68 17 -68 6 0 8 7 4 15 -3 8 -2 15 2 15 5 0 19 -30 33 -67 13 -37 26 -72 28 -77 2 -5 -11 5 -28 23 -22 23 -31 28 -29 16 3 -18 46 -66 76 -85 14 -9 12 -10 -10 -6 -15 4 -30 1 -34 -5 -4 -7 -14 -3 -29 12 -12 13 -33 32 -45 43 -15 12 -19 21 -12 25 7 4 9 19 5 36 -3 17 -6 45 -5 63 0 17 -4 32 -9 32 -6 0 -9 6 -7 12 3 7 -6 24 -19 38 -24 26 -40 81 -28 100 11 17 24 2 18 -23z m192 -367 c18 -20 11 -25 -19 -14 -17 6 -23 34 -8 34 5 0 17 -9 27 -20z m60 -130 c3 -5 -1 -10 -9 -10 -8 0 -18 5 -21 10 -3 6 1 10 9 10 8 0 18 -4 21 -10z m65 -34 c0 -15 3 -17 9 -7 6 9 11 10 15 2 4 -6 1 -12 -6 -12 -7 -1 -20 -2 -28 -3 -8 -1 -21 3 -29 9 -11 7 -13 7 -8 -1 4 -7 -2 -10 -18 -6 -38 7 -31 29 8 25 17 -2 26 0 19 3 -10 5 -10 9 -1 20 15 18 39 0 39 -30z"/> <path d="M1892 958 c5 -15 28 -23 28 -10 0 5 -7 13 -16 16 -10 4 -14 1 -12 -6z"/> <path d="M1966 821 c-3 -5 1 -14 8 -20 12 -10 13 -8 9 8 -6 23 -9 25 -17 12z"/> <path d="M940 1029 c0 -5 -4 -8 -9 -5 -5 3 -28 -4 -51 -16 -32 -17 -38 -24 -24 -26 29 -6 40 -20 21 -28 -9 -3 -14 -10 -11 -15 3 -5 0 -9 -5 -9 -6 0 -11 -5 -11 -11 0 -15 27 7 41 33 8 15 7 22 -5 31 -14 10 -13 12 9 13 15 1 22 -2 18 -9 -3 -5 -1 -7 4 -4 6 4 14 0 17 -9 7 -18 19 -12 22 10 1 7 -5 13 -13 12 -9 0 -18 4 -20 10 -2 7 6 10 22 8 22 -2 24 0 14 12 -14 17 -19 18 -19 3z"/> <path d="M1113 950 c0 -25 2 -35 4 -22 2 12 2 32 0 45 -2 12 -4 2 -4 -23z"/> <path d="M1315 970 c3 -5 8 -10 11 -10 2 0 4 5 4 10 0 6 -5 10 -11 10 -5 0 -7 -4 -4 -10z"/> <path d="M823 957 c-3 -6 -1 -7 5 -3 5 3 12 1 14 -6 3 -8 6 -7 10 3 7 17 -19 22 -29 6z"/> <path d="M900 937 c-8 -12 -18 -30 -23 -41 -6 -15 -10 -16 -22 -6 -8 6 -19 9 -24 6 -5 -4 -16 3 -24 14 -7 11 -17 17 -20 13 -11 -10 -8 -25 3 -18 6 3 10 1 10 -5 0 -7 -8 -9 -19 -5 -11 3 -22 1 -26 -5 -4 -6 8 -10 32 -11 21 0 55 -2 75 -3 30 -2 41 2 53 20 19 29 20 44 1 18 -8 -10 -18 -16 -22 -12 -4 5 1 17 11 28 10 11 16 22 14 25 -3 2 -11 -6 -19 -18z"/> <path d="M955 949 c-4 -6 -5 -12 -2 -15 2 -3 7 2 10 11 7 17 1 20 -8 4z"/> <path d="M1995 910 c-3 -5 -1 -10 4 -10 6 0 11 5 11 10 0 6 -2 10 -4 10 -3 0 -8 -4 -11 -10z"/> <path d="M2009 884 c6 -3 7 -13 4 -22 -4 -15 -3 -15 7 -2 10 13 11 11 7 -8 -3 -14 -1 -20 6 -15 6 4 8 0 4 -11 -5 -13 -3 -15 11 -8 13 7 23 3 42 -16 14 -14 17 -20 8 -13 -10 8 -18 10 -18 6 0 -4 -6 -2 -14 4 -11 9 -16 9 -22 0 -5 -8 -3 -9 6 -4 10 6 12 4 7 -9 -4 -10 -3 -15 3 -11 6 4 13 -7 16 -24 4 -17 13 -31 20 -31 12 0 11 5 -2 25 -9 14 -14 28 -11 32 4 3 14 -8 24 -25 17 -30 32 -35 81 -26 26 5 29 29 6 38 -14 5 -15 4 -5 -8 9 -11 9 -16 -1 -22 -7 -4 -10 -4 -6 1 4 4 0 14 -10 21 -24 19 -37 17 -17 -2 9 -9 13 -19 9 -23 -4 -3 -9 0 -11 7 -3 6 -9 9 -15 6 -6 -4 -14 0 -19 7 -12 19 -11 31 2 23 8 -4 8 0 0 15 -7 11 -15 21 -20 21 -4 0 -14 12 -21 26 -13 22 -15 23 -21 8 -5 -16 -8 -14 -20 11 -8 15 -20 30 -27 31 -7 1 -8 0 -3 -2z"/> <path d="M525 845 c-29 -13 -28 -13 34 -16 54 -3 65 -1 73 15 9 17 7 18 -15 12 -14 -3 -33 -9 -43 -13 -12 -4 -15 -3 -10 5 9 15 -1 14 -39 -3z"/> <path d="M732 830 c-6 -17 -12 -34 -14 -38 -2 -4 16 -10 39 -13 37 -5 44 -3 49 15 4 12 13 29 22 39 14 16 13 17 -9 18 -13 0 -32 2 -42 4 -11 2 -16 -1 -14 -8 2 -7 11 -11 20 -9 8 1 18 -2 22 -8 3 -5 2 -10 -4 -10 -6 0 -8 -6 -5 -14 4 -10 -4 -13 -29 -13 -33 1 -34 2 -26 31 12 40 4 45 -9 6z"/> <path d="M894 828 c-10 -20 -19 -28 -22 -20 -3 10 -8 8 -18 -5 -11 -14 -13 -15 -14 -3 0 12 -3 11 -11 -3 -6 -10 -8 -21 -5 -24 3 -4 6 -1 6 6 0 7 5 9 11 5 6 -3 15 0 20 7 6 10 9 7 9 -11 1 -25 1 -25 10 -2 5 12 14 22 20 22 6 0 8 4 5 10 -3 5 -1 19 5 30 6 11 8 20 6 20 -3 0 -13 -15 -22 -32z"/> <path d="M846 833 c-6 -14 -5 -15 5 -6 7 7 10 15 7 18 -3 3 -9 -2 -12 -12z"/> <path d="M447 803 c-12 -20 -18 -73 -8 -73 5 0 10 8 9 18 0 9 3 27 5 40 6 22 2 29 -6 15z"/> <path d="M477 793 c-3 -10 -8 -28 -12 -40 -3 -13 -2 -23 3 -23 5 0 13 16 17 36 7 38 1 59 -8 27z"/> <path d="M511 773 c-15 -52 -14 -53 17 -52 15 0 37 -2 50 -6 19 -6 22 -4 22 21 0 16 4 36 10 44 12 19 -5 30 -52 30 -34 0 -38 -3 -47 -37z m73 -10 c-3 -33 -7 -35 -38 -24 -26 10 -36 31 -15 31 5 0 8 4 5 9 -7 11 13 19 35 14 10 -3 15 -13 13 -30z"/> <path d="M1410 806 c0 -2 7 -7 16 -10 8 -3 12 -2 9 4 -6 10 -25 14 -25 6z"/> <path d="M267 774 c-69 -36 -54 -39 18 -4 33 16 53 29 45 29 -8 0 -37 -11 -63 -25z"/> <path d="M405 790 c3 -6 -4 -14 -17 -19 -17 -7 -18 -10 -6 -10 12 -1 15 -6 11 -18 -4 -13 -3 -15 5 -8 17 16 26 65 12 65 -6 0 -8 -5 -5 -10z"/> <path d="M636 793 c-2 -3 -2 -21 1 -40 4 -26 3 -34 -5 -29 -7 4 -12 2 -12 -4 0 -6 7 -13 15 -16 22 -9 18 -27 -5 -21 -25 6 -26 -1 -2 -20 9 -8 11 -12 5 -8 -22 11 -14 -19 8 -33 12 -8 18 -9 14 -3 -3 6 3 47 14 91 12 44 21 81 21 82 0 5 -49 6 -54 1z"/> <path d="M1515 790 c4 -6 -6 -10 -22 -10 -19 0 -24 -3 -14 -9 7 -5 25 -4 42 2 19 8 24 14 16 19 -17 11 -29 10 -22 -2z"/> <path d="M325 750 c-18 -20 -17 -20 8 -20 20 0 25 5 24 20 -1 11 -4 20 -8 20 -3 0 -14 -9 -24 -20z"/> <path d="M704 739 c-1 -31 11 -31 19 0 2 11 0 22 -7 24 -6 3 -11 -7 -12 -24z"/> <path d="M1390 766 c0 -2 8 -10 18 -17 15 -13 16 -12 3 4 -13 16 -21 21 -21 13z"/> <path d="M255 737 c-17 -12 -36 -28 -43 -37 -10 -13 -11 -12 -6 5 6 19 6 19 -11 3 -9 -9 -14 -21 -11 -27 10 -15 93 29 100 54 7 26 5 26 -29 2z"/> <path d="M802 740 c-7 -11 -8 -20 -3 -20 9 0 24 30 18 36 -1 2 -8 -6 -15 -16z"/> <path d="M1119 734 c-12 -14 -8 -21 26 -50 22 -18 51 -34 65 -36 20 -2 24 -8 22 -25 -2 -15 2 -23 11 -23 11 0 13 7 9 23 -7 27 -31 47 -51 39 -9 -3 -12 -1 -7 7 5 7 2 10 -5 9 -7 -2 -13 4 -14 12 0 8 -8 14 -16 14 -11 -1 -15 5 -12 16 7 24 -12 33 -28 14z"/> <path d="M1210 740 c0 -5 5 -10 11 -10 5 0 7 5 4 10 -3 6 -8 10 -11 10 -2 0 -4 -4 -4 -10z"/> <path d="M2255 666 c27 -58 38 -72 59 -74 30 -4 32 5 11 55 -8 20 -14 38 -11 40 9 9 56 -22 52 -34 -7 -17 -1 -17 14 2 10 12 5 17 -25 29 -21 9 -41 13 -46 10 -5 -3 -9 -1 -9 4 0 5 -17 16 -39 24 l-39 15 33 -71z"/> <path d="M730 726 c0 -9 40 -13 46 -5 3 5 -6 9 -20 9 -14 0 -26 -2 -26 -4z"/> <path d="M370 710 c-12 -8 -9 -10 13 -10 16 0 26 4 22 10 -8 12 -16 12 -35 0z"/> <path d="M425 710 c-3 -5 -1 -10 4 -10 6 0 11 5 11 10 0 6 -2 10 -4 10 -3 0 -8 -4 -11 -10z"/> <path d="M459 718 c-9 -29 -8 -69 0 -63 6 3 9 11 5 16 -3 5 -1 16 6 24 7 9 8 15 0 20 -5 3 -10 5 -11 3z"/> <path d="M306 701 c-3 -5 5 -8 19 -7 14 0 25 4 25 9 0 10 -38 9 -44 -2z"/> <path d="M490 698 c0 -4 14 -8 30 -8 17 0 30 2 30 4 0 2 -13 6 -30 8 -16 3 -30 1 -30 -4z"/> <path d="M1842 698 c2 -5 8 -9 13 -9 5 0 11 4 13 9 1 5 -4 9 -13 9 -9 0 -14 -4 -13 -9z"/> <path d="M250 685 c-11 -13 -10 -14 4 -9 9 3 16 10 16 15 0 13 -6 11 -20 -6z"/> <path d="M690 685 c0 -8 2 -15 4 -15 2 0 6 7 10 15 3 8 1 15 -4 15 -6 0 -10 -7 -10 -15z"/> <path d="M735 690 c4 -6 11 -8 16 -5 14 9 11 15 -7 15 -8 0 -12 -5 -9 -10z"/> <path d="M1092 689 c2 -8 24 -29 49 -47 24 -19 58 -46 74 -61 40 -36 66 -51 42 -24 -9 11 -14 23 -10 27 5 4 3 7 -2 6 -21 -5 -36 0 -30 10 3 6 -1 10 -9 10 -8 0 -19 6 -23 13 -14 21 -96 81 -91 66z"/> <path d="M2211 697 c-1 -4 10 -35 24 -69 30 -74 30 -78 4 -78 -11 0 -18 -4 -15 -9 3 -5 15 -7 26 -4 16 4 23 -2 31 -26 6 -17 15 -31 20 -31 13 0 11 8 -6 38 -13 23 -35 75 -40 92 -4 16 -43 94 -44 87z"/> <path d="M565 680 c3 -5 10 -10 16 -10 5 0 9 5 9 10 0 6 -7 10 -16 10 -8 0 -12 -4 -9 -10z"/> <path d="M2120 684 c0 -6 7 -19 16 -30 14 -18 14 -18 3 6 -14 31 -19 36 -19 24z"/> <path d="M2157 670 c3 -11 10 -23 16 -27 7 -4 8 0 4 11 -4 10 -7 22 -7 27 0 5 -4 9 -9 9 -5 0 -7 -9 -4 -20z"/> <path d="M320 676 c0 -8 48 -12 66 -5 13 5 7 8 -23 8 -24 1 -43 -1 -43 -3z"/> <path d="M1824 665 c-4 -8 -16 -15 -29 -15 -12 0 -28 -7 -35 -15 -11 -13 -10 -14 6 -8 17 6 18 5 4 -13 -10 -13 -6 -11 12 5 15 13 33 21 41 18 11 -4 13 0 9 15 -4 16 -2 19 8 13 9 -5 11 -4 6 3 -10 16 -15 15 -22 -3z"/> <path d="M203 660 c-13 -5 -23 -12 -23 -15 0 -9 16 -5 36 10 22 16 19 18 -13 5z"/> <path d="M235 647 c-23 -13 -46 -22 -53 -19 -7 2 -12 -3 -12 -12 0 -13 9 -11 48 10 43 23 73 44 62 44 -3 0 -23 -11 -45 -23z"/> <path d="M480 662 c0 -5 14 -9 30 -10 17 0 39 -4 50 -7 11 -3 20 -2 20 3 0 5 -17 12 -37 16 -51 8 -63 8 -63 -2z"/> <path d="M1425 660 c-3 -6 1 -7 9 -4 18 7 21 14 7 14 -6 0 -13 -4 -16 -10z"/> <path d="M2401 656 c2 -2 15 -9 29 -15 24 -11 24 -11 6 3 -16 13 -49 24 -35 12z"/> <path d="M360 639 c0 -5 4 -8 9 -5 5 4 12 0 14 -6 3 -8 6 -6 6 5 1 9 -6 17 -14 17 -8 0 -15 -5 -15 -11z"/> <path d="M416 639 c-8 -25 -12 -89 -5 -89 8 0 21 91 14 98 -2 3 -7 -1 -9 -9z"/> <path d="M295 630 c4 -6 11 -8 16 -5 14 9 11 15 -7 15 -8 0 -12 -5 -9 -10z"/> <path d="M441 598 c-1 -23 -4 -45 -7 -50 -3 -4 0 -8 5 -8 6 0 11 12 11 28 0 15 3 37 6 50 4 12 2 22 -3 22 -5 0 -10 -19 -12 -42z"/> <path d="M480 609 c0 -15 -4 -39 -10 -53 -5 -14 -6 -26 -2 -27 66 -5 92 -5 92 2 0 13 -22 22 -29 12 -3 -5 -17 -6 -31 -2 l-25 7 24 1 c17 1 21 5 17 17 -3 9 -6 18 -6 20 0 3 -4 2 -10 -1 -5 -3 -10 -1 -10 4 0 18 19 12 30 -10 7 -11 14 -18 17 -15 4 3 11 1 18 -4 8 -7 12 -6 12 3 0 7 3 25 7 41 4 15 3 25 -1 23 -5 -3 -27 -2 -51 3 -41 7 -42 7 -42 -21z m59 2 c18 -12 23 -38 7 -38 -6 0 -20 11 -29 24 -19 24 -6 32 22 14z"/> <path d="M1260 632 c0 -12 19 -26 26 -19 2 2 -2 10 -11 17 -9 8 -15 8 -15 2z"/> <path d="M120 605 c-15 -39 -12 -55 9 -55 21 0 46 -25 33 -34 -15 -9 -52 5 -45 18 4 7 2 7 -7 -1 -7 -7 -10 -19 -6 -30 6 -14 9 -15 15 -4 5 7 11 9 14 4 3 -5 24 -7 47 -5 33 3 39 7 29 18 -6 8 -19 14 -28 14 -14 1 -14 2 2 11 9 5 17 19 17 30 0 16 -5 18 -26 13 -19 -5 -25 -4 -20 5 4 6 0 18 -8 27 -15 14 -17 13 -26 -11z m64 -44 c3 -5 -1 -11 -9 -15 -9 -3 -15 0 -15 9 0 16 16 20 24 6z m13 -47 c-3 -3 -12 -4 -19 -1 -8 3 -5 6 6 6 11 1 17 -2 13 -5z"/> <path d="M237 616 c-3 -7 0 -19 6 -25 8 -8 4 -18 -14 -38 -14 -16 -16 -21 -5 -13 17 14 18 13 12 -8 -7 -22 0 -28 20 -14 8 4 10 26 7 60 -5 51 -16 66 -26 38z"/> <path d="M2160 612 c6 -13 14 -21 18 -18 3 4 -2 14 -12 24 -18 16 -18 16 -6 -6z"/> <path d="M2186 615 c4 -8 16 -14 28 -14 16 1 17 2 4 6 -10 2 -18 9 -18 14 0 5 -4 9 -10 9 -5 0 -7 -7 -4 -15z"/> <path d="M2385 619 c-29 -6 -26 -8 20 -14 11 -2 33 -8 49 -14 42 -17 41 -9 -2 14 -26 14 -46 18 -67 14z"/> <path d="M1832 563 c-11 -32 -24 -70 -27 -85 -4 -16 -11 -25 -16 -22 -5 3 -9 0 -9 -5 0 -6 6 -11 13 -11 7 0 21 25 32 55 10 31 24 60 32 66 11 10 11 15 1 27 -11 13 -10 15 4 9 10 -3 20 -2 23 2 4 7 -16 21 -29 21 -2 0 -13 -26 -24 -57z"/> <path d="M310 599 c0 -5 -5 -7 -11 -3 -8 4 -9 -1 -3 -17 4 -13 7 -30 7 -37 0 -7 7 -10 14 -7 8 3 17 5 19 5 2 0 4 8 3 18 0 10 -3 12 -6 5 -10 -26 -25 -13 -19 17 3 17 3 30 1 30 -3 0 -5 -5 -5 -11z"/> <path d="M353 596 c0 -8 3 -15 6 -14 19 2 24 -4 11 -12 -9 -6 -10 -10 -3 -10 21 0 23 17 4 34 -14 13 -18 14 -18 2z"/> <path d="M1325 594 c22 -11 24 -14 8 -10 -13 2 -25 0 -28 -4 -7 -11 34 -40 55 -40 8 1 2 7 -15 14 l-30 12 25 7 c24 7 24 8 6 22 -11 8 -27 15 -35 14 -9 0 -2 -7 14 -15z"/> <path d="M727 593 c-15 -14 -5 -23 25 -23 25 0 29 -3 20 -12 -7 -7 -12 -17 -12 -22 0 -6 5 -3 11 7 6 9 15 14 21 11 7 -5 9 -2 5 8 -5 14 -1 15 24 8 16 -5 29 -6 29 -2 0 4 5 0 10 -8 8 -13 10 -12 10 3 0 9 -4 17 -10 17 -14 0 -17 0 -50 10 -17 5 -28 5 -26 1 3 -4 -8 -8 -24 -8 -16 0 -27 4 -24 9 6 10 0 11 -9 1z"/> <path d="M1685 584 c-52 -22 -69 -27 -87 -25 -9 1 -19 -2 -21 -6 -7 -10 34 -10 51 1 7 4 12 5 12 1 0 -3 9 -1 21 5 15 9 24 8 35 0 11 -10 15 -9 20 4 10 27 0 34 -31 20z"/> <path d="M1787 589 c7 -7 15 -10 18 -7 3 3 -2 9 -12 12 -14 6 -15 5 -6 -5z"/> <path d="M1876 554 c-14 -26 -26 -53 -26 -60 0 -8 -4 -14 -9 -14 -10 0 -53 -143 -50 -167 2 -10 0 -27 -4 -38 -3 -11 -9 -45 -12 -75 -3 -30 -10 -82 -16 -115 -11 -74 -11 -85 -1 -85 11 0 33 110 42 214 4 57 12 93 21 100 8 6 15 26 17 45 4 52 41 111 97 153 27 21 51 42 53 48 6 16 -28 12 -34 -5 -4 -8 -13 -15 -21 -15 -8 0 -12 -4 -9 -8 7 -11 -31 -8 -41 3 -5 4 -3 5 3 2 14 -8 27 20 18 36 -5 9 -4 9 6 0 7 -6 19 -9 27 -6 11 4 10 8 -4 19 -26 20 -29 18 -57 -32z m19 -55 c-7 -11 -35 -12 -35 -1 0 4 9 8 20 9 11 1 18 -2 15 -8z m-30 -38 c-3 -6 -11 -11 -17 -11 -6 0 -6 6 2 15 14 17 26 13 15 -4z m-15 -25 c0 -2 -7 -9 -15 -16 -13 -11 -14 -10 -9 4 5 14 24 23 24 12z"/> <path d="M1180 576 c0 -8 5 -18 10 -21 6 -3 10 -10 10 -15 0 -15 -29 0 -32 16 -2 11 -7 9 -16 -7 -8 -11 -9 -18 -4 -15 14 8 43 -4 36 -15 -3 -5 -1 -9 5 -9 6 0 15 9 21 19 13 26 13 32 -2 29 -7 -2 -12 5 -10 15 2 9 -2 17 -8 17 -5 0 -10 -6 -10 -14z"/> <path d="M1760 581 c0 -10 19 -25 25 -20 1 2 -3 10 -11 17 -8 7 -14 8 -14 3z"/> <path d="M1405 570 c11 -5 29 -8 40 -8 16 0 15 2 -5 8 -34 11 -60 11 -35 0z"/> <path d="M2218 573 c7 -3 16 -2 19 1 4 3 -2 6 -13 5 -11 0 -14 -3 -6 -6z"/> <path d="M2300 569 c0 -11 32 -84 39 -89 3 -3 6 -12 6 -20 0 -8 9 -16 20 -17 11 -2 14 0 8 3 -7 3 -13 18 -13 32 0 15 -3 44 -6 64 -6 32 -10 37 -30 36 -13 -1 -24 -5 -24 -9z"/> <path d="M2386 553 c8 -34 25 -56 19 -24 -2 12 0 19 5 16 11 -7 7 -29 -9 -49 -12 -14 -9 -16 23 -16 l36 0 -20 40 c-11 22 -25 40 -31 40 -6 0 -7 5 -4 10 3 6 -1 10 -10 10 -12 0 -14 -6 -9 -27z"/> <path d="M2440 567 c0 -3 7 -18 15 -33 8 -16 15 -38 15 -48 0 -14 3 -17 10 -10 12 12 -10 86 -28 92 -7 2 -12 2 -12 -1z"/> <path d="M1096 552 c-10 -16 -19 -127 -10 -119 9 9 10 13 12 60 3 36 19 35 24 -3 3 -16 1 -30 -4 -30 -4 0 -8 -13 -8 -29 0 -25 3 -28 25 -23 14 2 25 9 25 14 0 5 -4 6 -10 3 -5 -3 -10 0 -11 7 0 7 -2 21 -4 31 -2 11 3 17 14 17 28 0 41 -20 31 -46 -7 -19 -6 -24 5 -24 10 0 15 11 15 36 0 19 4 33 9 29 5 -3 7 -21 4 -40 -6 -36 4 -44 25 -23 9 9 12 9 12 0 0 -7 7 -12 15 -12 8 0 15 5 15 10 0 6 -5 10 -11 10 -5 0 -7 4 -4 10 3 5 -6 21 -21 35 -15 14 -22 25 -15 25 6 0 11 5 11 11 0 8 -4 8 -15 -1 -20 -16 -79 4 -104 36 -11 14 -22 21 -25 16z"/> <path d="M1493 544 c0 -8 10 -9 30 -3 41 12 42 16 4 15 -19 -1 -34 -6 -34 -12z"/> <path d="M2496 514 c1 -25 5 -48 8 -51 3 -4 6 -2 6 4 0 6 9 9 19 6 16 -4 19 -1 14 17 -4 16 -8 18 -14 8 -5 -7 -9 -11 -10 -8 -11 64 -25 79 -23 24z"/> <path d="M581 534 c0 -11 3 -14 6 -6 3 7 2 16 -1 19 -3 4 -6 -2 -5 -13z"/> <path d="M1429 533 c-13 -16 -12 -17 4 -4 16 13 21 21 13 21 -2 0 -10 -8 -17 -17z"/> <path d="M1735 528 c-66 -26 -187 -47 -250 -43 -35 2 -43 1 -25 -5 40 -13 93 -11 171 5 64 14 74 14 95 0 13 -8 27 -15 31 -15 4 0 -5 8 -20 19 -24 16 -26 19 -11 25 9 3 26 4 38 1 12 -3 15 -2 8 1 -10 5 -9 9 5 20 23 17 19 16 -42 -8z"/> <path d="M800 530 c0 -5 5 -10 10 -10 6 0 10 5 10 10 0 6 -4 10 -10 10 -5 0 -10 -4 -10 -10z"/> <path d="M1226 532 c-2 -4 4 -9 15 -9 11 -1 17 2 14 8 -7 11 -22 12 -29 1z"/> <path d="M1280 536 c0 -2 7 -7 16 -10 8 -3 12 -2 9 4 -6 10 -25 14 -25 6z"/> <path d="M1997 523 c3 -7 6 -13 8 -13 2 0 5 6 8 13 3 8 -1 14 -8 14 -7 0 -11 -6 -8 -14z"/> <path d="M2021 510 c-19 -27 -51 -44 -36 -20 3 6 1 10 -5 10 -7 0 -10 -5 -8 -12 5 -14 -71 -84 -86 -80 -6 2 -8 0 -4 -3 4 -4 0 -21 -8 -37 -21 -41 -12 -45 9 -5 17 30 41 55 132 132 22 18 37 36 34 39 -3 3 -15 -8 -28 -24z"/> <path d="M57 495 c-9 -19 -12 -37 -7 -40 11 -7 16 2 25 43 9 41 3 41 -18 -3z"/> <path d="M1518 523 c6 -2 18 -2 25 0 6 3 1 5 -13 5 -14 0 -19 -2 -12 -5z"/> <path d="M1580 520 c8 -5 20 -10 25 -10 6 0 3 5 -5 10 -8 5 -19 10 -25 10 -5 0 -3 -5 5 -10z"/> <path d="M326 509 c2 -4 -3 -10 -11 -13 -13 -5 -14 -10 -4 -27 6 -12 13 -47 15 -78 2 -31 5 -69 8 -86 2 -16 -1 -36 -6 -42 -7 -9 -7 -13 1 -13 10 0 28 54 24 71 -8 29 -9 120 -2 124 5 4 9 14 8 23 0 11 -3 12 -6 5 -8 -21 -22 -15 -16 7 6 22 14 25 29 10 6 -6 10 -3 10 10 0 14 -7 18 -27 17 -15 -1 -25 -5 -23 -8z"/> <path d="M397 514 c-8 -8 4 -44 16 -44 12 0 1 -124 -14 -151 -7 -15 -6 -17 6 -13 8 4 16 16 16 28 2 27 5 52 13 99 5 29 2 39 -10 44 -8 3 -13 12 -10 19 5 14 -7 28 -17 18z"/> <path d="M640 510 c0 -5 5 -10 10 -10 6 0 10 5 10 10 0 6 -4 10 -10 10 -5 0 -10 -4 -10 -10z"/> <path d="M958 513 c7 -3 16 -2 19 1 4 3 -2 6 -13 5 -11 0 -14 -3 -6 -6z"/> <path d="M1363 513 c10 -16 55 -25 74 -15 12 7 9 9 -13 9 -16 0 -38 3 -48 8 -13 6 -17 5 -13 -2z"/> <path d="M260 505 c-2 -5 -2 -13 -2 -17 1 -3 -5 -9 -14 -12 -10 -4 -13 -2 -8 7 6 8 3 8 -8 -1 -10 -8 -30 -11 -47 -9 -17 3 -31 1 -31 -4 0 -5 6 -9 14 -9 18 0 59 -124 51 -153 -4 -15 -3 -18 3 -9 9 13 36 -65 48 -137 3 -14 7 -33 10 -43 3 -9 1 -19 -5 -22 -5 -3 -7 -15 -4 -27 5 -16 8 -18 15 -7 11 15 6 -12 -7 -46 -6 -14 -4 -18 6 -14 9 3 17 28 22 64 5 32 14 75 22 96 8 24 9 40 3 46 -18 18 -56 258 -39 248 5 -3 8 1 7 9 -1 9 -6 15 -11 15 -5 -1 -12 7 -16 17 -4 10 -8 14 -9 8z m-2 -67 c5 -7 13 -40 16 -73 4 -33 13 -88 20 -122 12 -54 11 -64 -1 -75 -8 -6 -13 -7 -12 -2 1 5 -1 20 -4 34 -4 14 -8 37 -10 51 -1 15 -9 34 -16 42 -7 9 -10 21 -6 27 3 5 1 10 -5 10 -6 0 -10 8 -8 18 1 9 -2 24 -7 32 -20 32 -16 70 8 70 8 0 19 -6 25 -12z"/> <path d="M426 502 c-3 -6 -1 -14 5 -17 15 -10 25 3 12 16 -7 7 -13 7 -17 1z"/> <path d="M790 500 c-13 -8 -12 -10 3 -10 9 0 17 5 17 10 0 12 -1 12 -20 0z"/> <path d="M1255 500 c3 -5 8 -10 11 -10 2 0 4 5 4 10 0 6 -5 10 -11 10 -5 0 -7 -4 -4 -10z"/> <path d="M1318 495 c23 -7 50 -19 58 -26 18 -15 86 -21 78 -7 -3 5 -14 6 -25 3 -10 -4 -19 -2 -19 4 0 5 -24 17 -54 25 -65 19 -99 20 -38 1z"/> <path d="M2560 503 c1 -12 40 -59 40 -49 0 5 10 1 22 -10 26 -23 18 -7 -19 35 -26 30 -43 39 -43 24z"/> <path d="M451 453 c-5 -27 -15 -97 -21 -158 -7 -60 -13 -111 -14 -112 -1 -1 -12 0 -24 4 -21 5 -23 10 -17 65 3 33 8 72 11 87 4 18 3 22 -4 11 -5 -8 -12 -37 -16 -65 -17 -129 -17 -131 -6 -115 8 10 13 11 16 4 3 -7 14 -9 26 -6 13 3 19 1 15 -5 -5 -7 0 -9 13 -6 11 3 20 1 20 -4 0 -6 12 -9 28 -6 24 3 25 2 7 -7 -20 -10 -20 -10 0 -7 16 2 21 11 23 49 3 40 0 47 -12 42 -9 -3 -13 -10 -10 -15 3 -5 0 -9 -5 -9 -6 0 -11 -5 -11 -11 0 -5 4 -8 9 -5 5 3 11 0 14 -8 4 -9 0 -13 -11 -12 -9 2 -18 8 -20 14 -2 7 -7 10 -11 8 -3 -2 -6 31 -6 75 0 64 3 79 15 79 13 0 13 -1 0 -10 -12 -7 -11 -9 6 -8 15 2 20 7 17 19 -4 13 1 17 16 16 15 -1 21 -8 21 -25 0 -15 -4 -21 -12 -16 -8 5 -9 2 -5 -9 3 -9 2 -19 -4 -23 -7 -4 -6 -10 0 -18 6 -7 8 -16 4 -19 -3 -4 -1 -7 5 -7 7 0 12 10 13 23 0 12 2 31 5 42 2 11 6 45 10 75 3 30 9 67 14 82 8 24 6 26 -26 30 -18 2 -36 -1 -38 -7 -3 -6 -5 -5 -5 3 -2 30 -20 8 -30 -35z m69 13 c0 -8 3 -21 6 -30 4 -11 0 -16 -12 -16 -16 0 -16 -2 -4 -10 8 -5 11 -12 7 -16 -7 -7 -37 13 -35 24 0 4 -1 10 -2 15 -7 21 -4 33 10 39 24 10 30 9 30 -6z m-45 -45 c-3 -5 6 -18 20 -29 15 -12 21 -23 15 -27 -5 -3 -10 -1 -10 5 0 6 -9 5 -22 -4 -22 -15 -23 -14 -21 17 2 47 2 47 14 47 5 0 8 -4 4 -9z"/> <path d="M480 446 c0 -2 7 -6 15 -10 8 -3 15 -1 15 4 0 6 -7 10 -15 10 -8 0 -15 -2 -15 -4z"/> <path d="M930 492 c0 -5 7 -9 15 -9 8 0 15 4 15 9 0 4 -7 8 -15 8 -8 0 -15 -4 -15 -8z"/> <path d="M973 480 c1 -11 7 -20 14 -20 17 0 16 8 -1 26 -13 12 -15 12 -13 -6z"/> <path d="M86 473 c-6 -14 -5 -15 5 -6 7 7 10 15 7 18 -3 3 -9 -2 -12 -12z"/> <path d="M117 469 c7 -7 15 -10 18 -7 3 3 -2 9 -12 12 -14 6 -15 5 -6 -5z"/> <path d="M1607 455 c-15 -11 -17 -17 -7 -32 7 -11 9 -12 7 -3 -2 8 2 23 11 33 18 20 14 22 -11 2z"/> <path d="M1649 453 c-13 -15 -12 -15 9 -4 23 12 28 21 13 21 -5 0 -15 -7 -22 -17z"/> <path d="M390 441 c0 -11 4 -22 9 -25 4 -3 6 6 3 19 -5 30 -12 33 -12 6z"/> <path d="M1349 443 c12 -24 31 -39 31 -25 0 5 -10 17 -21 28 -22 19 -22 19 -10 -3z"/> <path d="M2400 450 c0 -6 14 -9 30 -8 17 1 30 6 30 10 0 4 -13 8 -30 8 -16 0 -30 -5 -30 -10z"/> <path d="M1500 440 c0 -5 5 -10 10 -10 6 0 10 5 10 10 0 6 -4 10 -10 10 -5 0 -10 -4 -10 -10z"/> <path d="M1748 443 c7 -3 16 -2 19 1 4 3 -2 6 -13 5 -11 0 -14 -3 -6 -6z"/> <path d="M1896 438 c3 -5 10 -6 15 -3 13 9 11 12 -6 12 -8 0 -12 -4 -9 -9z"/> <path d="M2505 441 c-3 -2 -2 -7 0 -11 6 -10 45 -1 45 11 0 8 -37 8 -45 0z"/> <path d="M29 428 c-1 -7 -2 -21 -2 -30 0 -10 -4 -18 -8 -18 -5 0 -9 -7 -9 -15 0 -8 6 -12 14 -9 8 3 13 14 11 25 -2 10 2 25 10 33 8 7 11 16 8 20 -10 10 -23 7 -24 -6z"/> <path d="M75 429 c-6 -8 1 -13 17 -10 4 0 5 -6 2 -13 -3 -8 -12 -12 -20 -9 -8 3 -14 1 -14 -5 0 -6 -3 -18 -7 -28 -5 -13 -3 -15 8 -9 8 5 5 -1 -5 -13 -11 -12 -16 -25 -12 -29 4 -4 16 3 27 17 15 20 18 21 12 5 -6 -18 -5 -18 10 -6 13 11 15 17 6 28 -7 7 -9 17 -5 21 4 4 12 -1 17 -11 6 -9 14 -15 20 -12 5 4 9 -1 9 -10 0 -9 -4 -14 -9 -10 -5 3 -13 0 -17 -6 -5 -8 1 -10 19 -7 15 3 28 1 30 -5 4 -13 37 -18 37 -6 0 5 -6 12 -14 15 -11 4 -13 12 -5 31 12 32 12 33 -5 33 -9 0 -12 7 -9 23 3 16 2 18 -5 9 -8 -11 -10 -11 -15 1 -6 16 -63 21 -72 6z m64 -6 c-3 -21 3 -32 20 -38 13 -4 17 -12 14 -25 -6 -23 -23 -27 -23 -5 0 8 -7 15 -16 15 -10 0 -14 6 -11 14 4 10 1 13 -9 9 -18 -7 -18 2 2 21 17 17 25 20 23 9z"/> <path d="M1545 430 c-16 -6 -15 -8 10 -13 35 -6 37 -6 21 9 -6 6 -20 8 -31 4z"/> <path d="M2574 428 c4 -23 31 -58 44 -58 7 0 11 -4 8 -9 -3 -5 -14 -7 -24 -5 -13 4 -22 -8 -38 -48 l-22 -53 22 -7 c35 -10 46 -9 46 7 0 18 -17 20 -22 3 -3 -8 -7 -6 -11 4 -3 9 1 22 9 28 10 9 14 9 14 1 0 -6 6 -11 13 -11 6 1 2 9 -10 19 -22 18 -22 19 -3 24 14 4 20 0 21 -11 1 -10 5 1 9 23 8 35 6 42 -16 60 -13 12 -24 26 -24 33 0 7 -4 12 -9 12 -5 0 -8 -6 -7 -12z"/> <path d="M360 419 c0 -5 5 -7 10 -4 6 3 10 8 10 11 0 2 -4 4 -10 4 -5 0 -10 -5 -10 -11z"/> <path d="M1303 423 c20 -5 22 -14 6 -30 -9 -9 -7 -10 9 -6 18 4 20 9 11 24 -5 10 -17 18 -27 18 -16 -1 -16 -2 1 -6z"/> <path d="M1393 416 c3 -8 1 -17 -6 -20 -7 -2 -1 -5 12 -5 18 -1 21 2 12 12 -6 8 -8 17 -4 20 3 4 1 7 -6 7 -7 0 -11 -6 -8 -14z"/> <path d="M1440 421 c8 -5 18 -7 22 -5 5 3 12 -5 16 -17 7 -19 10 -20 15 -6 4 10 2 17 -4 17 -6 0 -8 4 -5 8 2 4 -10 9 -27 10 -23 2 -28 -1 -17 -7z"/> <path d="M1628 423 c7 -3 16 -2 19 1 4 3 -2 6 -13 5 -11 0 -14 -3 -6 -6z"/> <path d="M2084 418 c-6 -9 5 -14 54 -22 18 -3 32 -1 32 4 0 6 -14 10 -31 10 -16 0 -28 4 -25 8 3 5 -2 9 -10 9 -8 0 -17 -4 -20 -9z"/> <path d="M2250 420 c0 -5 -8 -7 -17 -6 -10 2 -27 0 -38 -5 -16 -6 -12 -8 15 -7 19 0 46 3 60 7 25 7 25 7 3 13 -13 3 -23 2 -23 -2z"/> <path d="M1770 407 c0 -10 8 -17 18 -17 9 0 13 4 7 8 -5 4 -13 11 -17 16 -5 5 -8 2 -8 -7z"/> <path d="M2400 403 c0 -10 5 -11 18 -5 9 5 24 12 32 15 8 3 0 5 -17 4 -20 -1 -33 -7 -33 -14z"/> <path d="M2539 414 c-3 -21 3 -60 10 -67 4 -4 6 9 6 28 -2 32 -13 61 -16 39z"/> <path d="M383 392 c1 -14 5 -18 11 -12 7 7 6 14 -1 21 -9 9 -12 7 -10 -9z"/> <path d="M1520 401 c8 -6 18 -7 24 -4 5 3 6 1 2 -6 -4 -6 -11 -9 -16 -6 -5 3 -11 1 -15 -4 -5 -10 33 -7 42 3 10 10 -9 26 -30 26 -17 0 -19 -2 -7 -9z"/> <path d="M1658 403 c7 -3 16 -2 19 1 4 3 -2 6 -13 5 -11 0 -14 -3 -6 -6z"/> <path d="M2475 400 c3 -5 8 -10 11 -10 2 0 4 5 4 10 0 6 -5 10 -11 10 -5 0 -7 -4 -4 -10z"/> <path d="M2505 400 c3 -5 8 -10 11 -10 2 0 4 5 4 10 0 6 -5 10 -11 10 -5 0 -7 -4 -4 -10z"/> <path d="M918 394 c-5 -4 -8 -19 -8 -33 1 -23 2 -24 11 -8 11 19 9 53 -3 41z"/> <path d="M980 389 c0 -5 6 -9 13 -9 8 0 7 -4 -3 -10 -11 -7 -11 -10 -2 -10 7 0 10 -4 7 -10 -3 -5 -1 -10 5 -10 7 0 10 6 7 14 -3 7 0 19 6 25 6 6 9 11 7 12 -3 0 -13 2 -22 4 -10 2 -18 -1 -18 -6z"/> <path d="M1221 386 c-7 -8 -11 -32 -10 -53 2 -21 -1 -45 -6 -53 -6 -9 -4 -11 6 -5 11 7 12 6 3 -6 -6 -8 -9 -35 -8 -61 2 -27 -1 -48 -5 -48 -5 0 -7 -12 -4 -27 3 -24 2 -25 -6 -8 -8 17 -10 17 -10 3 -1 -9 3 -19 8 -22 4 -3 6 -17 3 -32 -3 -16 -7 -21 -12 -14 -5 8 -9 3 -12 -12 -6 -34 10 -44 62 -37 45 6 45 6 8 7 -42 2 -42 2 -27 92 9 52 21 155 22 193 1 9 4 17 8 17 4 0 14 3 22 6 12 4 16 -10 22 -73 4 -43 9 -87 11 -98 3 -11 4 -31 4 -45 -1 -47 0 -55 2 -79 2 -13 9 -26 17 -29 12 -4 13 12 7 98 -7 108 -32 254 -47 280 -7 12 -8 12 -9 1 0 -11 -4 -11 -19 3 -16 14 -20 15 -30 2z m24 -30 c-2 -12 -4 -23 -4 -26 -2 -9 -21 24 -21 36 0 6 7 11 15 11 9 0 13 -8 10 -21z"/> <path d="M1445 390 c-19 -8 -19 -9 3 -9 12 -1 22 4 22 9 0 6 -1 10 -2 9 -2 0 -12 -4 -23 -9z"/> <path d="M885 379 c-4 -6 -5 -12 -2 -15 2 -3 7 2 10 11 7 17 1 20 -8 4z"/> <path d="M1103 377 c-3 -6 -7 -23 -8 -39 -2 -22 2 -28 16 -28 11 0 19 5 19 11 0 5 -5 7 -11 3 -8 -4 -8 0 0 15 13 24 27 27 34 9 4 -10 6 -10 6 0 2 20 21 13 21 -8 0 -11 -5 -20 -11 -20 -5 0 -7 -4 -4 -10 3 -5 1 -10 -4 -10 -6 0 -10 -3 -10 -7 3 -21 -3 -29 -26 -31 -14 -1 -25 3 -25 9 0 5 5 7 10 4 6 -3 10 -2 10 3 0 6 -7 13 -16 16 -22 9 -24 8 -18 -9 4 -8 1 -22 -6 -30 -9 -11 -9 -15 -1 -15 7 0 9 -5 5 -11 -4 -7 -7 -25 -6 -41 0 -15 -3 -26 -8 -23 -5 3 -7 -6 -4 -20 3 -16 0 -25 -8 -25 -7 0 -5 -5 5 -11 24 -14 27 -10 29 42 1 27 8 49 17 57 14 11 14 11 -2 6 -17 -6 -18 -5 -6 14 19 31 42 38 34 11 -5 -13 -2 -25 6 -29 14 -10 21 -40 9 -40 -5 0 -10 4 -12 9 -1 5 -12 -2 -22 -17 -11 -14 -14 -22 -7 -18 19 12 42 -13 31 -34 -5 -9 -6 -20 -3 -24 3 -3 0 -6 -8 -6 -12 0 -12 -2 0 -9 7 -5 10 -14 7 -20 -11 -17 -26 -3 -26 22 0 17 -2 19 -9 7 -6 -8 -7 -18 -4 -24 4 -5 1 -6 -6 -2 -7 5 -10 15 -7 23 4 9 1 13 -6 11 -7 -3 -13 -17 -14 -31 -1 -14 2 -24 6 -22 5 3 22 2 40 -1 22 -5 28 -9 18 -15 -10 -7 -9 -9 5 -9 13 0 17 8 17 33 0 17 6 60 13 94 12 56 12 63 -5 77 -17 15 -15 51 3 41 4 -3 6 -12 2 -20 -3 -8 -1 -15 5 -15 5 0 12 12 15 26 3 18 1 24 -9 20 -18 -7 -18 4 0 18 7 6 16 27 19 46 5 35 4 36 -39 46 -30 7 -47 7 -51 1z m47 -228 c0 -6 -4 -7 -10 -4 -5 3 -10 11 -10 16 0 6 5 7 10 4 6 -3 10 -11 10 -16z"/> <path d="M2031 384 c-1 -6 8 -19 19 -29 20 -18 20 -17 20 10 0 22 -3 25 -14 16 -11 -9 -15 -9 -19 1 -3 7 -6 8 -6 2z"/> <path d="M2111 381 c-10 -7 -12 -21 -7 -55 4 -25 12 -46 17 -46 6 0 6 -7 -1 -19 -7 -13 -17 -18 -33 -15 -12 2 -35 5 -52 6 -16 1 -34 7 -38 13 -5 5 -6 -12 -3 -39 3 -27 6 -66 6 -87 0 -31 4 -39 18 -39 11 0 13 3 5 8 -12 8 -14 52 -3 52 15 0 19 -14 7 -28 -9 -13 -9 -14 1 -8 6 4 13 2 13 -3 1 -6 3 -14 4 -18 1 -5 6 -23 10 -41 4 -18 12 -35 16 -38 5 -3 7 -10 4 -15 -4 -5 1 -9 9 -9 20 0 16 41 -7 64 -9 10 -14 22 -11 28 4 6 1 13 -5 17 -13 8 -17 53 -7 91 l6 25 -12 -25 c-17 -32 -38 -37 -38 -7 0 17 2 19 9 8 8 -12 11 -9 16 11 5 18 12 25 21 21 11 -4 14 -18 10 -59 -3 -30 -1 -54 5 -56 5 -2 11 -13 12 -26 0 -12 5 -22 9 -22 4 0 6 10 4 23 -3 12 -5 28 -5 35 -1 8 -6 10 -13 6 -10 -6 -10 -4 0 8 9 11 11 29 7 51 -4 20 -2 37 3 41 12 7 25 -22 15 -36 -3 -6 -2 -8 3 -5 6 3 9 -33 8 -89 -1 -85 6 -117 23 -100 7 6 6 68 -2 159 l-5 57 45 2 c25 1 59 2 75 3 17 1 35 -3 40 -10 6 -7 21 -10 35 -7 28 5 26 14 27 -136 0 -34 4 -65 9 -68 9 -5 12 48 10 151 -1 37 1 46 8 35 6 -8 11 -10 11 -4 0 5 -5 15 -12 22 -9 9 -9 12 1 12 9 0 8 4 -3 15 -17 18 -30 20 -20 3 5 -8 -5 -9 -37 -3 -24 4 -53 9 -65 10 -11 1 -25 4 -31 8 -7 4 -14 4 -17 -1 -2 -4 -21 -9 -40 -10 -27 -2 -36 1 -36 13 0 8 6 16 13 17 22 2 62 6 85 7 12 0 22 5 22 9 0 5 -17 8 -37 7 -23 -1 -42 5 -49 13 -9 12 -13 12 -28 -3 -17 -17 -17 -17 -14 1 2 10 8 22 13 26 6 5 6 8 -1 8 -7 0 -9 11 -6 25 5 27 3 29 -17 16z m49 -85 c0 -3 -4 -8 -10 -11 -5 -3 -10 -1 -10 4 0 6 5 11 10 11 6 0 10 -2 10 -4z m-70 -256 c0 -5 -4 -10 -10 -10 -5 0 -10 5 -10 10 0 6 5 10 10 10 6 0 10 -4 10 -10z"/> <path d="M2260 382 c0 -5 -8 -8 -19 -5 -10 3 -22 0 -26 -7 -9 -14 3 -28 13 -15 8 12 44 16 37 5 -3 -5 -1 -11 5 -15 16 -10 12 -35 -5 -29 -8 4 -13 10 -10 14 3 5 1 11 -5 15 -5 3 -10 0 -10 -8 0 -8 -7 -18 -16 -21 -11 -4 -15 -2 -11 8 4 10 0 12 -16 9 -18 -5 -20 -3 -9 8 14 16 16 43 2 34 -6 -4 -8 -11 -5 -16 4 -5 2 -9 -4 -9 -5 0 -11 5 -13 12 -3 7 -10 8 -17 3 -11 -6 -10 -10 3 -17 9 -5 16 -16 16 -25 0 -9 6 -13 15 -10 8 4 17 2 20 -3 4 -7 13 -6 26 0 13 8 19 7 19 0 0 -6 4 -9 9 -5 5 3 12 1 16 -5 3 -5 1 -10 -6 -10 -19 0 -5 -10 21 -15 19 -4 20 -2 9 12 -8 9 -12 26 -11 39 2 15 -2 24 -10 24 -11 0 -11 2 0 9 10 6 10 10 -3 21 -8 7 -15 8 -15 2z"/> <path d="M1336 371 c-3 -5 1 -14 8 -20 12 -10 13 -8 9 8 -6 23 -9 25 -17 12z"/> <path d="M1371 364 c0 -11 3 -14 6 -6 3 7 2 16 -1 19 -3 4 -6 -2 -5 -13z"/> <path d="M1698 373 c7 -3 16 -2 19 1 4 3 -2 6 -13 5 -11 0 -14 -3 -6 -6z"/> <path d="M2409 373 c-7 -39 -2 -103 8 -103 17 0 29 23 15 28 -7 2 -12 11 -12 20 0 15 2 15 11 2 9 -13 10 -12 5 3 -3 9 -9 24 -12 32 -5 11 -2 13 10 9 9 -3 16 -1 16 5 0 12 -39 16 -41 4z"/> <path d="M2512 332 c2 -28 7 -52 11 -52 10 0 4 86 -7 97 -4 4 -6 -16 -4 -45z"/> <path d="M944 358 c3 -10 1 -18 -3 -18 -10 0 -7 -55 5 -84 5 -14 4 -17 -4 -12 -7 4 -12 3 -12 -3 0 -5 6 -11 13 -14 6 -2 9 -8 4 -13 -13 -14 -41 22 -32 43 10 24 12 63 4 69 -11 6 -22 -34 -13 -47 3 -6 0 -15 -7 -20 -11 -6 -11 -11 -1 -21 14 -14 17 -32 4 -24 -9 5 -38 -102 -30 -109 4 -4 56 -16 76 -17 6 -1 12 -5 12 -10 0 -5 4 -7 10 -3 5 3 7 11 5 18 -3 7 1 53 9 102 10 67 11 92 2 97 -8 6 -8 8 0 8 7 0 14 7 18 15 3 9 0 15 -10 15 -8 0 -12 -4 -9 -10 3 -6 -1 -7 -9 -4 -9 3 -14 9 -11 14 2 4 -3 16 -11 26 -14 17 -15 17 -10 2z m11 -27 c-3 -5 -1 -12 5 -16 6 -4 8 -10 5 -15 -3 -5 -1 -11 5 -15 10 -6 4 -131 -8 -149 -7 -11 -8 -17 -11 -37 0 -5 -5 -8 -11 -4 -5 3 -6 13 -3 23 6 15 5 15 -10 4 -9 -8 -21 -11 -27 -7 -14 9 -9 65 7 65 16 0 17 -15 2 -41 -10 -20 -10 -20 18 -3 37 24 42 29 20 21 -10 -4 -16 -3 -13 2 3 5 -1 14 -9 21 -18 15 -10 31 10 24 8 -4 13 -10 10 -14 -3 -5 -1 -11 4 -14 5 -4 8 2 6 11 -1 10 2 24 8 31 5 6 5 12 0 12 -9 0 -11 10 -14 65 -2 37 0 45 7 45 3 0 3 -4 -1 -9z"/> <path d="M1415 360 c3 -5 11 -10 16 -10 6 0 7 5 4 10 -3 6 -11 10 -16 10 -6 0 -7 -4 -4 -10z"/> <path d="M1596 361 c-12 -5 -15 -10 -9 -14 6 -4 16 0 23 8 14 17 13 17 -14 6z"/> <path d="M2338 363 c23 -9 12 -20 -15 -16 l-28 4 24 -13 c14 -7 25 -23 26 -35 1 -12 -2 -20 -6 -17 -4 2 -10 0 -13 -5 -6 -9 15 -21 35 -21 6 0 9 24 7 55 -2 48 -6 55 -23 54 -11 0 -14 -3 -7 -6z"/> <path d="M1510 350 c-9 -6 -10 -10 -3 -10 6 0 15 5 18 10 8 12 4 12 -15 0z"/> <path d="M1635 350 c-9 -15 14 -21 35 -10 11 6 20 12 20 13 0 6 -51 4 -55 -3z"/> <path d="M1718 353 c6 -2 10 -9 6 -14 -3 -5 0 -9 5 -9 6 0 11 7 11 15 0 8 -8 15 -17 14 -11 0 -13 -3 -5 -6z"/> <path d="M2662 340 c-4 -44 -6 -50 -14 -50 -5 0 -6 -5 -2 -12 5 -8 11 -6 20 7 7 10 11 21 9 26 -3 4 -1 10 5 14 5 3 10 0 10 -9 0 -14 -47 -78 -63 -84 -4 -2 -3 -10 3 -17 9 -11 6 -17 -13 -30 -17 -11 -23 -22 -20 -35 3 -11 0 -20 -6 -20 -6 0 -10 -3 -9 -7 1 -5 -10 -31 -25 -60 -30 -57 -31 -63 -18 -63 4 0 21 27 37 60 15 33 32 60 37 60 4 0 6 4 3 8 -8 13 23 52 42 53 11 0 12 2 4 6 -17 7 -5 23 18 23 16 0 18 -8 16 -81 -1 -44 2 -83 6 -85 5 -3 8 -14 8 -25 0 -13 7 -19 22 -19 20 0 20 1 4 19 -12 13 -15 27 -10 46 5 22 4 26 -6 20 -8 -5 -11 -4 -6 3 11 18 9 143 -3 155 -9 9 -14 8 -21 -3 -5 -8 -10 -10 -10 -5 0 6 -4 4 -9 -3 -7 -11 -9 -11 -14 2 -4 10 4 19 24 28 33 15 34 17 15 63 -17 39 -31 45 -34 15z"/> <path d="M5 330 c-3 -5 -1 -10 4 -10 6 0 11 5 11 10 0 6 -2 10 -4 10 -3 0 -8 -4 -11 -10z"/> <path d="M1057 326 c-3 -8 -2 -18 3 -21 13 -8 20 9 11 24 -6 10 -10 9 -14 -3z"/> <path d="M1380 332 c0 -16 32 -24 44 -11 8 9 8 10 -2 5 -7 -4 -19 -2 -27 4 -9 7 -15 8 -15 2z"/> <path d="M1450 316 c0 -31 6 -34 13 -6 3 11 1 23 -4 26 -5 3 -9 -6 -9 -20z"/> <path d="M2482 306 c1 -20 5 -36 9 -36 7 0 1 61 -7 69 -2 2 -3 -13 -2 -33z"/> <path d="M1330 319 c0 -5 5 -7 10 -4 6 3 10 8 10 11 0 2 -4 4 -10 4 -5 0 -10 -5 -10 -11z"/> <path d="M1520 326 c0 -2 9 -6 20 -9 11 -3 18 -1 14 4 -5 9 -34 13 -34 5z"/> <path d="M1580 320 c-9 -6 -10 -10 -3 -10 6 0 15 5 18 10 8 12 4 12 -15 0z"/> <path d="M1950 310 c0 -11 5 -20 10 -20 6 0 10 9 10 20 0 11 -4 20 -10 20 -5 0 -10 -9 -10 -20z"/> <path d="M1621 309 c10 -6 5 -9 -16 -10 -23 -1 -25 -3 -8 -6 13 -2 32 2 43 10 20 14 20 15 -6 15 -18 0 -22 -3 -13 -9z"/> <path d="M1688 302 c4 -10 7 -12 10 -4 2 7 9 9 15 5 7 -3 8 -2 4 2 -14 16 -36 14 -29 -3z"/> <path d="M1736 312 c-3 -5 1 -9 9 -9 8 0 12 4 9 9 -3 4 -7 8 -9 8 -2 0 -6 -4 -9 -8z"/> <path d="M1850 302 c0 -15 -6 -22 -20 -22 -15 0 -19 -6 -18 -24 1 -14 6 -22 10 -20 4 3 5 11 1 19 -3 8 0 15 7 15 12 0 12 -3 -9 -85 -13 -49 -26 -192 -17 -184 4 4 9 33 12 65 3 33 9 73 14 89 5 17 12 49 15 73 4 23 11 40 15 37 5 -3 5 -19 0 -35 -5 -17 -7 -30 -5 -30 3 0 0 -12 -5 -26 -6 -14 -13 -56 -16 -92 -4 -37 -9 -71 -12 -77 -3 -6 1 -5 8 2 7 7 15 29 17 50 2 20 9 44 16 52 10 12 9 13 -3 6 -13 -7 -13 -6 -2 7 7 9 9 18 4 20 -4 1 -5 14 -1 28 l7 25 7 -22 c4 -13 10 -23 14 -23 4 0 7 -9 8 -20 1 -11 -2 -20 -6 -20 -4 0 -8 -6 -8 -14 0 -8 8 -11 20 -8 14 4 16 7 5 13 -7 5 -8 9 -3 9 7 0 9 22 5 61 -3 33 -2 63 3 66 12 7 16 1 19 -34 1 -18 6 -30 10 -27 4 3 5 18 1 34 -5 26 -3 30 16 30 12 0 20 4 16 9 -3 6 -18 9 -33 7 -47 -4 -75 8 -79 34 -5 32 -13 39 -13 12z m50 -104 c0 -15 -3 -17 -19 -8 -13 6 -17 17 -14 30 4 16 8 18 19 9 8 -6 14 -20 14 -31z"/> <path d="M2317 313 c-10 -9 -9 -23 2 -23 5 0 11 7 15 15 5 15 -5 20 -17 8z"/> <path d="M54 300 c-20 -8 -44 -67 -44 -106 1 -18 1 -18 16 1 8 11 12 25 10 31 -3 7 2 20 10 31 9 10 12 11 8 3 -6 -12 -5 -13 7 -3 22 18 109 3 109 -18 0 -6 5 -7 10 -4 14 9 14 7 -20 -93 -31 -93 -38 -142 -19 -142 5 0 8 4 4 9 -3 5 -1 12 3 15 5 3 7 18 4 32 -3 15 -1 24 4 21 5 -3 10 8 10 25 1 17 5 33 10 37 5 3 10 14 12 25 7 37 22 67 32 61 12 -8 13 -3 0 29 -5 14 -15 26 -21 26 -8 0 -8 -4 1 -14 10 -13 7 -13 -18 -4 -20 8 -28 17 -25 27 4 14 3 14 -7 1 -9 -11 -13 -12 -17 -2 -2 6 -9 12 -14 12 -6 0 -8 -4 -5 -9 3 -4 -6 -6 -19 -3 -14 2 -22 8 -19 13 6 10 6 10 -22 -1z"/> <path d="M1016 298 c3 -4 9 -8 15 -8 5 0 9 4 9 8 0 5 -7 9 -15 9 -8 0 -12 -4 -9 -9z"/> <path d="M401 281 c-6 -10 -8 -21 -5 -23 2 -3 0 -17 -5 -32 -7 -17 -7 -26 -1 -26 6 0 11 8 11 18 3 42 7 60 13 71 4 6 5 11 2 11 -3 0 -10 -8 -15 -19z"/> <path d="M1350 293 c31 -11 42 -26 28 -34 -10 -7 -9 -9 5 -9 9 0 17 3 17 8 -1 17 -29 42 -46 41 -14 0 -15 -2 -4 -6z"/> <path d="M1416 292 c-2 -4 -1 -14 3 -21 6 -9 11 -10 15 -2 4 6 2 11 -4 11 -6 0 -8 5 -5 10 3 6 4 10 1 10 -3 0 -7 -4 -10 -8z"/> <path d="M1 263 c0 -25 1 -26 9 -8 12 27 12 35 0 35 -5 0 -10 -12 -9 -27z"/> <path d="M1046 238 c-4 -29 -8 -64 -10 -78 -2 -14 -7 -45 -11 -69 -5 -28 -4 -42 2 -38 10 6 39 224 31 233 -3 2 -8 -19 -12 -48z"/> <path d="M1721 274 c0 -11 3 -14 6 -6 3 7 2 16 -1 19 -3 4 -6 -2 -5 -13z"/> <path d="M1017 265 c-3 -11 -9 -47 -12 -80 -3 -33 -8 -72 -11 -87 -3 -17 -1 -28 5 -28 6 0 11 12 12 28 0 15 2 36 5 47 2 11 5 34 6 50 1 17 5 32 8 35 4 3 4 16 0 30 -6 23 -7 23 -13 5z"/> <path d="M1346 265 c-3 -8 -1 -15 4 -15 6 0 10 7 10 15 0 8 -2 15 -4 15 -2 0 -6 -7 -10 -15z"/> <path d="M1511 275 c1 -19 18 -51 18 -35 0 8 -4 22 -9 30 -5 8 -9 11 -9 5z"/> <path d="M460 260 c0 -5 5 -10 10 -10 6 0 10 5 10 10 0 6 -4 10 -10 10 -5 0 -10 -4 -10 -10z"/> <path d="M1634 260 c16 -5 32 -14 36 -20 5 -8 9 -7 13 2 3 8 0 15 -6 16 -7 1 -25 4 -42 7 l-30 5 29 -10z"/> <path d="M1546 244 c-5 -13 -4 -14 7 -6 8 7 18 8 22 4 5 -4 5 -1 1 6 -10 17 -23 15 -30 -4z"/> <path d="M1473 235 c0 -11 4 -12 14 -4 7 6 13 13 13 15 0 2 -6 4 -13 4 -8 0 -14 -7 -14 -15z"/> <path d="M1718 243 c7 -3 16 -2 19 1 4 3 -2 6 -13 5 -11 0 -14 -3 -6 -6z"/> <path d="M325 230 c3 -5 8 -10 11 -10 2 0 4 5 4 10 0 6 -5 10 -11 10 -5 0 -7 -4 -4 -10z"/> <path d="M1398 222 c-11 -15 -11 -16 4 -4 13 10 17 10 20 0 3 -8 6 -9 11 -1 12 18 -21 23 -35 5z"/> <path d="M1598 233 c7 -3 16 -2 19 1 4 3 -2 6 -13 5 -11 0 -14 -3 -6 -6z"/> <path d="M1638 233 c7 -3 16 -2 19 1 4 3 -2 6 -13 5 -11 0 -14 -3 -6 -6z"/> <path d="M1751 224 c0 -11 3 -14 6 -6 3 7 2 16 -1 19 -3 4 -6 -2 -5 -13z"/> <path d="M2407 233 c-15 -14 -6 -25 16 -19 54 16 62 14 64 -18 1 -24 -1 -27 -11 -16 -13 18 -79 25 -74 8 2 -6 15 -18 29 -26 21 -12 22 -12 7 1 -26 21 -22 27 12 14 36 -14 46 -34 19 -42 -18 -6 -28 -28 -10 -23 9 3 11 -2 11 -24 0 -9 -3 -8 -10 2 -5 8 -13 11 -17 6 -4 -5 -3 -10 2 -13 33 -12 40 -22 26 -35 -8 -7 -11 -8 -8 -2 3 6 0 11 -8 11 -20 0 -19 -9 4 -29 18 -15 21 -15 32 -2 10 12 10 20 1 34 -6 10 -8 21 -4 25 12 12 8 30 -8 37 -13 6 -13 7 1 7 13 1 17 13 18 56 l1 55 -43 0 c-24 0 -47 -3 -50 -7z"/> <path d="M2521 218 c7 -13 9 -41 5 -72 -3 -28 -8 -73 -11 -101 l-6 -50 21 55 c11 30 18 61 15 68 -3 7 -1 11 4 8 5 -3 12 1 15 10 9 22 7 36 -2 30 -5 -3 -9 1 -9 9 0 11 4 12 14 4 14 -13 15 -13 18 17 2 17 -3 20 -26 19 -18 -1 -29 3 -29 12 0 7 -5 13 -10 13 -7 0 -7 -7 1 -22z"/> <path d="M1964 119 c3 -61 7 -114 10 -116 3 -3 4 47 3 111 -1 64 -5 116 -10 116 -4 0 -6 -50 -3 -111z"/> <path d="M1511 211 c-8 -5 -9 -11 -3 -15 5 -3 12 1 16 9 6 17 6 18 -13 6z"/> <path d="M1350 206 c0 -2 9 -6 20 -9 11 -3 18 -1 14 4 -5 9 -34 13 -34 5z"/> <path d="M1611 198 c10 -7 8 -8 -8 -5 -24 5 -40 -7 -23 -18 5 -3 20 -1 32 6 12 7 43 11 67 10 64 -2 47 6 -23 12 -40 3 -54 2 -45 -5z"/> <path d="M204 179 c-3 -6 -1 -16 5 -22 6 -6 11 -7 11 -1 0 5 5 2 11 -6 9 -13 10 -13 6 0 -2 8 -10 14 -17 12 -8 -2 -10 3 -7 13 7 17 1 20 -9 4z"/> <path d="M1395 180 c-4 -6 -11 -7 -17 -4 -7 4 -8 2 -4 -5 6 -9 11 -9 22 0 14 11 18 19 10 19 -3 0 -8 -5 -11 -10z"/> <path d="M1440 171 c0 -11 3 -12 11 -4 6 6 18 9 27 6 10 -4 13 -2 8 5 -9 16 -46 10 -46 -7z"/> <path d="M2739 169 c-1 -13 0 -28 1 -34 1 -5 2 -20 2 -32 0 -13 4 -23 8 -23 5 0 6 -10 2 -22 -3 -14 -1 -19 6 -14 6 3 9 16 7 29 -2 12 -6 42 -9 66 -6 49 -15 66 -17 30z"/> <path d="M1508 173 c7 -3 16 -2 19 1 4 3 -2 6 -13 5 -11 0 -14 -3 -6 -6z"/> <path d="M1635 170 c-13 -6 -15 -9 -5 -9 8 0 22 4 30 9 18 12 2 12 -25 0z"/> <path d="M1370 149 c-34 -7 -34 -7 8 -6 24 1 45 4 47 7 5 8 -9 8 -55 -1z"/> <path d="M1489 147 c4 -4 18 -3 32 2 23 9 22 9 -8 8 -18 -1 -28 -6 -24 -10z"/> <path d="M1650 144 c-14 -8 -18 -14 -10 -14 8 1 24 7 34 15 24 19 10 18 -24 -1z"/> <path d="M1936 151 c-4 -7 -5 -15 -2 -18 9 -9 19 4 14 18 -4 11 -6 11 -12 0z"/> <path d="M1582 130 c-12 -10 -19 -21 -15 -23 5 -3 16 6 26 19 21 29 19 30 -11 4z"/> <path d="M2409 148 c0 -2 -2 -17 -4 -35 -3 -24 0 -30 11 -26 15 6 19 23 6 23 -5 0 -9 7 -9 15 0 9 6 14 14 11 8 -3 11 -1 8 4 -5 9 -24 14 -26 8z"/> <path d="M347 133 c-4 -3 -7 -18 -6 -32 1 -26 1 -25 10 3 9 31 7 41 -4 29z"/> <path d="M369 103 c0 -21 -2 -48 -5 -60 -2 -13 0 -23 4 -23 4 0 9 16 10 36 2 20 7 45 12 54 5 10 6 20 3 24 -15 14 -23 4 -24 -31z"/> <path d="M200 110 c-8 -15 -8 -20 2 -21 7 0 4 -4 -7 -9 -17 -8 -17 -9 7 -7 21 1 25 4 18 18 -6 10 -5 20 2 27 9 9 9 12 0 12 -6 0 -16 -9 -22 -20z"/> <path d="M237 111 c-4 -17 -3 -21 5 -13 5 5 8 16 6 23 -3 8 -7 3 -11 -10z"/> <path d="M406 99 c-3 -17 -6 -45 -6 -61 0 -27 2 -29 17 -17 9 8 14 9 10 3 -8 -14 42 -29 53 -17 4 4 10 29 13 54 6 45 5 47 -21 52 -15 3 -34 8 -43 12 -12 5 -18 -2 -23 -26z m38 -1 c-4 -5 2 -8 12 -6 15 2 19 -3 19 -27 1 -47 -12 -56 -40 -31 -21 19 -22 22 -7 28 9 4 11 7 5 7 -18 1 -16 38 2 38 8 0 12 -4 9 -9z"/> <path d="M1115 120 c-3 -5 -1 -10 4 -10 6 0 11 5 11 10 0 6 -2 10 -4 10 -3 0 -8 -4 -11 -10z"/> <path d="M1386 119 c2 -4 22 -9 43 -11 22 -2 37 0 35 3 -2 4 1 9 6 11 6 2 -12 3 -39 3 -27 0 -47 -3 -45 -6z"/> <path d="M1656 101 c-14 -15 -15 -21 -4 -27 7 -4 10 -3 5 1 -4 5 0 17 10 27 9 10 14 18 11 18 -3 0 -13 -9 -22 -19z"/> <path d="M1735 111 c-3 -5 -2 -12 3 -15 5 -3 9 1 9 9 0 17 -3 19 -12 6z"/> <path d="M1937 63 c8 -79 15 -82 12 -5 -1 34 -6 62 -10 62 -4 0 -5 -26 -2 -57z"/> <path d="M529 103 c-7 -54 -2 -103 10 -103 8 0 11 3 8 7 -4 3 1 15 10 25 16 18 16 18 -2 12 -15 -6 -17 -4 -12 10 4 10 7 22 7 28 0 6 6 6 15 -2 12 -10 18 -10 30 0 16 13 21 0 6 -15 -6 -6 -4 -15 5 -23 11 -10 14 -10 14 0 0 6 7 3 16 -8 14 -18 15 -18 4 4 -6 13 -16 20 -23 16 -8 -5 -9 -4 -2 4 13 14 85 25 85 13 0 -5 9 -11 20 -14 11 -3 18 -1 14 4 -7 12 6 11 44 -2 25 -8 30 -15 26 -35 -7 -36 12 -29 20 7 10 52 8 54 -42 55 -26 1 -80 5 -121 9 -57 5 -76 4 -82 -7 -7 -10 -9 -9 -9 5 0 16 -39 26 -41 10z"/> <path d="M1596 87 c-16 -12 -16 -13 3 -13 12 0 21 6 21 13 0 7 -1 13 -3 13 -2 0 -11 -6 -21 -13z"/> <path d="M1436 81 c-3 -4 4 -7 14 -8 11 -1 22 2 24 6 3 4 -4 7 -14 8 -11 1 -22 -2 -24 -6z"/> <path d="M1699 76 c9 -11 9 -15 -1 -19 -8 -4 -7 -6 5 -6 9 -1 17 -7 17 -13 0 -9 3 -9 9 1 12 19 -4 51 -26 51 -12 0 -13 -3 -4 -14z"/> <path d="M2000 56 c0 -19 5 -38 11 -41 17 -11 23 3 9 20 -10 12 -10 15 4 15 10 0 16 8 15 23 0 21 -1 21 -9 2 -7 -17 -9 -17 -9 -2 -2 33 -21 17 -21 -17z"/> <path d="M1860 59 c0 -11 4 -18 10 -14 5 3 7 12 3 20 -7 21 -13 19 -13 -6z"/> <path d="M1897 73 c-13 -12 -7 -43 8 -43 10 0 14 9 13 25 -2 25 -9 31 -21 18z"/> <path d="M852 59 c9 -5 16 -15 14 -22 -1 -6 -1 -9 1 -4 3 4 9 5 14 1 5 -3 9 0 9 5 0 6 4 11 10 11 5 0 7 -7 4 -15 -4 -10 0 -15 12 -14 11 0 14 3 7 5 -7 3 -9 12 -6 21 5 13 2 15 -15 11 -12 -4 -22 -2 -22 3 0 5 -10 9 -22 9 -20 -1 -21 -2 -6 -11z"/> <path d="M1406 57 c3 -10 9 -15 12 -12 3 3 0 11 -7 18 -10 9 -11 8 -5 -6z"/> <path d="M2410 37 c0 -20 4 -37 9 -37 11 0 9 56 -2 66 -4 4 -7 -9 -7 -29z"/> <path d="M206 44 c-5 -14 -4 -15 8 -5 18 15 30 -11 13 -28 -8 -8 -8 -11 0 -11 19 0 25 18 13 40 -13 24 -26 26 -34 4z"/> <path d="M656 51 c-4 -5 -2 -12 3 -15 5 -4 12 -2 15 3 4 5 2 12 -3 15 -5 4 -12 2 -15 -3z"/> <path d="M1500 50 c-9 -6 -10 -10 -3 -10 6 0 15 5 18 10 8 12 4 12 -15 0z"/> <path d="M1544 45 c-4 -8 -9 -13 -13 -11 -4 3 -12 1 -19 -3 -6 -4 7 -7 31 -7 23 -1 34 1 24 4 -11 2 -16 10 -13 18 3 8 3 14 0 14 -2 0 -7 -7 -10 -15z"/> <path d="M1635 50 c-3 -6 1 -7 9 -4 18 7 21 14 7 14 -6 0 -13 -4 -16 -10z"/> <path d="M938 44 c6 -3 12 -13 12 -22 0 -14 2 -14 9 -3 10 16 34 5 25 -12 -5 -8 -3 -8 7 0 17 16 4 30 -36 37 -16 4 -24 3 -17 0z"/> <path d="M1375 40 c3 -5 8 -10 11 -10 2 0 4 5 4 10 0 6 -5 10 -11 10 -5 0 -7 -4 -4 -10z"/> <path d="M719 23 c-12 -16 -12 -17 2 -5 13 10 19 10 28 -2 7 -8 19 -12 27 -9 20 7 17 22 -3 18 -10 -1 -23 2 -29 6 -7 6 -16 3 -25 -8z"/> <path d="M1443 28 c1 -7 -3 -12 -10 -13 -6 0 -15 -3 -19 -7 -3 -4 4 -5 16 -3 32 6 45 21 26 28 -9 4 -15 1 -13 -5z"/> <path d="M1685 30 c-4 -6 -3 -10 2 -9 20 3 27 -2 13 -11 -13 -8 -13 -10 2 -10 25 0 29 14 8 28 -13 7 -21 8 -25 2z"/> <path d="M2043 21 c0 -11 5 -18 9 -15 4 3 5 11 1 19 -7 21 -12 19 -10 -4z"/> <path d="M167 16 c-4 -9 0 -13 11 -11 9 2 22 4 27 4 6 1 3 6 -5 11 -20 13 -27 12 -33 -4z"/> <path d="M1010 21 c0 -6 5 -13 10 -16 6 -3 10 1 10 9 0 9 -4 16 -10 16 -5 0 -10 -4 -10 -9z"/> <path d="M1360 20 c0 -5 10 -10 23 -10 18 0 19 2 7 10 -19 13 -30 13 -30 0z"/> <path d="M1859 13 c-13 -16 -12 -17 4 -4 16 13 21 21 13 21 -2 0 -10 -8 -17 -17z"/> <path d="M2761 14 c0 -11 3 -14 6 -6 3 7 2 16 -1 19 -3 4 -6 -2 -5 -13z"/> <path d="M610 10 c-9 -6 -10 -10 -3 -10 6 0 15 5 18 10 8 12 4 12 -15 0z"/> <path d="M1050 9 c0 -5 9 -9 20 -9 11 0 20 2 20 4 0 2 -9 6 -20 9 -11 3 -20 1 -20 -4z"/> <path d="M1890 8 c0 -10 17 -10 24 0 3 5 -1 9 -9 9 -8 0 -15 -4 -15 -9z"/> <path d="M1648 3 c7 -3 16 -2 19 1 4 3 -2 6 -13 5 -11 0 -14 -3 -6 -6z"/> </g> </svg> 